<?xml version="1.0" standalone="no"?>
<!DOCTYPE svg PUBLIC "-//W3C//DTD SVG 1.1//EN" "http://www.w3.org/Graphics/SVG/1.1/DTD/svg11.dtd" >
<!--
Created with mf2outline.
-->
<svg>
<metadata>
Created by FontForge 20120731 at Fri Nov 10 04:42:17 2017
 By app
Copyright (c) 2017, Metaflop (http://www.metaflop.com), Simon Egli, Marco Mueller, Alexis Reigel, with Reserved Font Name Bespoke. Dual licensed under the GPL v3 (http://www.gnu.org/copyleft/gpl.html) and the OFL v1.1 (http://scripts.sil.org/OFL_web).
</metadata>
<defs>
<font id="Bespoke-69bwTknwA2" horiz-adv-x="665" >
  <font-face 
    font-family="Bespoke"
    font-weight="5"
    font-stretch="normal"
    units-per-em="1000"
    panose-1="2 0 6 3 0 0 0 0 0 0"
    ascent="800"
    descent="-200"
    x-height="549"
    cap-height="900"
    bbox="-69 -764 1303.01 1225"
    underline-thickness="50"
    underline-position="-100"
    unicode-range="U+0020-FB04"
  />
    <missing-glyph />
    <glyph glyph-name="emdash" unicode="&#x2013;&#x2d;" horiz-adv-x="1148" 
d="M44 238l1 73h1065l-1 -73h-1065z" />
    <glyph glyph-name="questiondown" unicode="&#x3f;&#x2018;" horiz-adv-x="602" 
d="M443 -505c0 49 45 74 45 117l102 -5c-5 -55 -78 -73 -104 -120c-34 -61 21 -187 -70 -187h-161c-50 0 -56 38 -56 83c0 11 1 23 1 35c0 26 -2 50 -12 69c-26 49 -103 66 -102 125l3 293c1 59 77 75 104 124c34 61 -20 187 71 187h29l1 71h103l-2 -143h-132
c-29 0 -36 -15 -36 -37c0 -25 10 -58 10 -86c0 -49 -45 -73 -45 -116l-3 -293c0 -43 43 -67 43 -115c0 -29 -12 -63 -12 -89c0 -21 8 -35 36 -35h161c29 0 36 15 36 37c0 25 -10 57 -10 85zM348 586c24 0 18 -36 32 -50s49 -8 49 -32c0 -25 -34 -19 -49 -33
c-14 -14 -9 -49 -33 -49s-19 35 -33 49s-48 8 -48 32c0 25 34 19 49 33c14 14 9 50 33 50z" />
    <glyph glyph-name="fi" unicode="fi" horiz-adv-x="658" 
d="M480 824c0 26 -33 33 -33 65c0 12 3 24 3 35c0 13 -4 23 -20 23h-120c-17 0 -20 -10 -20 -24c0 -10 2 -22 2 -33c0 -33 -34 -39 -34 -66l-3 -275h325l-6 -549h-103l5 476h-222c-2 -159 -2 -317 -4 -476h-103l4 476h-97v73h98l3 275c0 48 67 45 93 78c29 36 5 118 63 118
h120c58 0 32 -82 60 -118c25 -33 92 -30 92 -78h-103z" />
    <glyph glyph-name="guillemotright" unicode="&#x3e;&#x3e;" horiz-adv-x="658" 
d="M332 274l-155 -274h-115l155 274l-149 275h115zM599 274l-155 -274h-115l155 274l-149 275h115z" />
    <glyph glyph-name="quotedblleft" unicode="&#x2018;&#x2018;" horiz-adv-x="644" 
d="M97 608l132 292h79l-105 -292h-106zM470 900h79l-104 -292h-107z" />
    <glyph glyph-name="endash" unicode="&#x2d;&#x2d;" horiz-adv-x="658" 
d="M44 238l1 73h575l-1 -73h-575z" />
    <glyph glyph-name="exclamdown" unicode="&#x21;&#x2018;" horiz-adv-x="411" 
d="M148 -660l9 947h103l-9 -947h-103zM212 586c24 0 18 -36 32 -50s49 -8 49 -32c0 -25 -35 -19 -50 -33c-14 -14 -9 -49 -33 -49s-18 35 -32 49s-49 8 -49 32c0 25 35 19 50 33c14 14 9 50 33 50z" />
    <glyph glyph-name="quotedblright" unicode="&#x2019;&#x2019;" horiz-adv-x="644" 
d="M110 608l105 292h107l-132 -292h-80zM456 900h107l-132 -292h-79z" />
    <glyph glyph-name="fl" unicode="fl" horiz-adv-x="693" 
d="M367 885c0 13 -16 18 -16 33c0 6 1 12 1 18s-1 11 -9 11h-59c-8 0 -10 -5 -10 -12c0 -5 1 -11 1 -17c0 -16 -16 -20 -16 -33l-4 -336h110l-1 -73h-109c-2 -159 -3 -317 -5 -476h-103l5 476h-98v73h98l4 336c0 38 55 31 77 54c23 24 12 81 52 81h58c40 0 29 -57 51 -81
c22 -23 76 -16 76 -54h-103zM506 0l9 980h103l-9 -980h-103z" />
    <glyph glyph-name="guillemotleft" unicode="&#x3c;&#x3c;" horiz-adv-x="658" 
d="M180 274l149 -274h-115l-149 274l155 275h115zM447 274l149 -274h-114l-150 274l155 275h115z" />
    <glyph glyph-name="V" unicode="V" horiz-adv-x="736" 
d="M21 900h110l254 -663l266 663h83l-362 -900h-7z" />
    <glyph glyph-name="quoteleft" unicode="&#x2018;" horiz-adv-x="357" 
d="M203 900h80l-106 -292h-107z" />
    <glyph glyph-name="lcaron" unicode="&#x13e;" horiz-adv-x="271" 
d="M84 0l10 980h103l-10 -980h-103zM348 980h107l-133 -292h-80z" />
    <glyph glyph-name="M" unicode="M" horiz-adv-x="1085" 
d="M98 0l9 900h7l429 -755l445 755h7l-9 -900h-103l6 583l-343 -583h-7l-332 584l-6 -584h-103z" />
    <glyph glyph-name="scaron" unicode="&#x161;" horiz-adv-x="560" 
d="M43 97h103c0 -19 26 -15 37 -26s5 -38 24 -38h146c19 0 15 27 26 38s37 7 37 26l1 77c0 19 -26 15 -37 26s-6 38 -25 38h-145c-42 0 -38 59 -66 82c-30 25 -98 7 -98 55l1 77c0 48 69 30 99 55c28 23 25 82 67 82h146c42 0 37 -59 65 -82c30 -25 99 -7 99 -55h-103
c0 19 -26 15 -37 26s-6 38 -25 38h-146c-19 0 -14 -27 -25 -38s-37 -7 -37 -26l-1 -77c0 -19 26 -15 37 -26s5 -38 24 -38h146c42 0 37 -59 65 -82c30 -25 99 -7 99 -55l-1 -77c0 -48 -69 -30 -99 -55c-28 -23 -25 -82 -67 -82h-146c-42 0 -37 59 -65 82
c-30 25 -99 7 -99 55zM372 837h93l-115 -180h-126l-111 180h93l82 -102z" />
    <glyph glyph-name="equal" unicode="=" horiz-adv-x="686" 
d="M60 348v73h575l-1 -73h-574zM57 128l1 73h575l-1 -73h-575z" />
    <glyph glyph-name="braceright" unicode="}" horiz-adv-x="427" 
d="M69 -764l-18 71h2c31 0 36 21 36 47c0 13 -1 28 -1 42s0 28 6 38c17 31 68 40 68 78l4 467c1 59 85 46 120 82c17 17 22 46 30 71c-7 25 -11 54 -28 71c-34 36 -120 23 -119 82l5 467c0 38 -50 47 -66 78c-5 9 -6 21 -6 34c0 16 2 34 2 49c0 25 -5 44 -35 44h-1l19 71
c61 -16 25 -122 61 -170c34 -46 130 -39 129 -106l-5 -467c0 -29 41 -22 57 -40c17 -18 8 -62 38 -62l-1 -102c-30 0 -22 -44 -39 -62s-58 -11 -58 -40l-5 -467c-1 -67 -96 -60 -131 -106c-36 -48 -3 -154 -64 -170z" />
    <glyph glyph-name="idieresis" unicode="&#xef;" horiz-adv-x="266" 
d="M81 0l6 549h102l-5 -549h-103zM16 792c25 0 18 -35 33 -50s50 -9 50 -34s-36 -19 -51 -34s-9 -50 -34 -50s-18 35 -33 50s-50 9 -50 34s36 19 51 34s9 50 34 50zM266 792c25 0 19 -35 34 -50s50 -9 50 -34s-36 -19 -51 -34s-9 -50 -34 -50s-19 35 -34 50s-50 9 -50 34
s36 19 51 34s9 50 34 50z" />
    <glyph glyph-name="germandbls" unicode="&#xdf;" horiz-adv-x="693" 
d="M84 0c3 254 5 509 8 763c0 49 70 40 99 71s14 106 66 106h142c52 0 36 -75 65 -106c28 -30 97 -21 97 -70c0 -43 -1 -85 -1 -128c0 -36 -49 -43 -67 -71c-8 -13 -9 -33 -10 -51c18 -27 13 -78 36 -105c30 -35 108 -28 107 -82l-2 -162c0 -49 -68 -48 -94 -82
c-29 -38 -4 -123 -64 -123h-180c-60 0 -24 83 -46 123c-11 20 -35 31 -52 46l-1 -129h-103zM399 867h-143c-30 0 -12 -42 -24 -62c-10 -16 -37 -21 -37 -42c-2 -199 -4 -399 -6 -598h84c0 -19 9 -37 9 -57c0 -19 -13 -44 -13 -60c0 -9 4 -15 18 -15h179c18 0 22 11 22 25
c0 11 -2 24 -2 36c0 35 35 43 35 71l2 162c0 26 -33 31 -45 52c-15 25 9 79 -30 79h-149v74h149c11 0 15 4 15 11c0 13 -11 34 -11 49s5 29 5 44l1 127c0 20 -27 26 -36 42c-11 20 7 62 -23 62z" />
    <glyph glyph-name="gbreve" unicode="&#x11f;" horiz-adv-x="714" 
d="M636 549l-9 -916c-1 -64 -84 -81 -114 -133c-37 -65 20 -200 -77 -200h-199c-22 0 -36 6 -45 18l71 55h174c32 0 40 18 40 43c0 26 -9 59 -9 87c0 58 56 80 56 130l5 522c-13 -8 -24 -17 -32 -29c-26 -40 7 -126 -54 -126h-199c-62 0 -41 88 -74 126
c-32 36 -113 27 -112 84l2 169c1 57 80 48 113 84c34 38 15 126 77 126h199c61 0 26 -86 51 -126c7 -12 20 -21 32 -29l1 115h103zM549 839v-57c0 -40 -57 -25 -82 -45c-23 -19 -20 -67 -54 -67h-124c-34 0 -31 48 -54 67c-24 20 -80 5 -80 45v57h83l-1 -57
c0 -16 23 -11 32 -19s6 -28 20 -28h124c14 0 13 20 22 28c10 8 31 3 31 19l1 57h82zM448 516h-199c-40 0 -19 -56 -35 -82c-14 -22 -51 -27 -51 -55l-2 -169c0 -28 37 -33 50 -55c16 -26 -6 -82 34 -82h199c40 0 18 56 34 82c14 22 51 27 52 55l1 169c0 28 -37 33 -50 55
c-16 26 7 82 -33 82z" />
    <glyph glyph-name="eacute" unicode="&#xe9;" horiz-adv-x="693" 
d="M646 116c-1 -56 -80 -34 -115 -62c-32 -26 -30 -94 -78 -94h-206c-65 0 -41 94 -75 134c-32 38 -115 31 -114 89l2 183c1 58 82 51 115 89c35 40 13 134 78 134h207c65 0 41 -94 75 -134c32 -38 114 -31 113 -89c0 -43 -1 -85 -1 -128h-486v-55c0 -30 38 -36 52 -60
c17 -29 -10 -90 34 -90h207c25 0 21 36 36 50c16 15 53 7 53 33h103zM410 837h128l-154 -180h-95zM545 366c0 30 -38 36 -52 60c-17 29 10 90 -34 90h-207c-44 0 -19 -61 -36 -90c-14 -24 -53 -30 -53 -60l-1 -55h383v55z" />
    <glyph glyph-name="i" unicode="i" horiz-adv-x="266" 
d="M81 0l6 549h102l-5 -549h-103zM141 792c25 0 18 -35 33 -50s51 -9 51 -34s-36 -19 -51 -34s-10 -50 -35 -50s-18 35 -33 50s-50 9 -50 34s36 19 51 34s9 50 34 50z" />
    <glyph glyph-name="Racute" unicode="&#x154;" horiz-adv-x="707" 
d="M98 0l9 900h359c67 0 47 -97 85 -137c37 -39 129 -26 128 -91l-1 -189c-1 -65 -93 -52 -131 -91c-14 -15 -21 -38 -27 -61l181 -331h-121l-134 255h-242l-3 -255h-103zM382 1147h128l-154 -180h-95zM209 827l-5 -499h256c45 0 25 64 46 93c19 25 69 26 69 62l2 189
c0 36 -50 37 -68 62c-21 29 1 93 -44 93h-256z" />
    <glyph glyph-name="uhungarumlaut" unicode="&#x171;" 
d="M586 549l-6 -549h-103l1 80c-9 -5 -16 -11 -22 -19c-22 -32 1 -101 -48 -101h-161c-50 0 -37 71 -67 101s-104 17 -103 68l5 420h103l-5 -420c0 -22 30 -22 41 -38c13 -18 -1 -58 27 -58h161c28 0 15 40 28 58c11 16 42 16 42 38c1 140 3 280 4 420h103zM164 657l111 180
h125l-144 -180h-92zM484 837h125l-144 -180h-92z" />
    <glyph glyph-name="h" unicode="h" horiz-adv-x="637" 
d="M90 0l10 980h103l-5 -512c10 5 19 12 25 20c23 32 0 101 49 101h143c50 0 32 -71 59 -101c26 -29 91 -22 91 -68l-5 -420h-103l5 420c0 18 -22 23 -29 38c-2 5 -3 12 -3 18v18c0 12 -2 22 -16 22h-143c-28 0 -15 -40 -29 -58c-12 -16 -44 -15 -45 -37l-4 -421h-103z" />
    <glyph glyph-name="uring" unicode="&#x16f;" 
d="M586 549l-6 -549h-103l1 80c-9 -5 -16 -11 -22 -19c-22 -32 1 -101 -48 -101h-161c-50 0 -37 71 -67 101s-104 17 -103 68l5 420h103l-5 -420c0 -22 30 -22 41 -38c13 -18 -1 -58 27 -58h161c28 0 15 40 28 58c11 16 42 16 42 38c1 140 3 280 4 420h103zM369 813h-64
c-12 0 -6 -17 -11 -25c-5 -7 -17 -7 -17 -16l-1 -50c0 -9 13 -9 17 -16c5 -8 -1 -24 11 -24h64c12 0 6 16 11 24c5 7 17 7 17 16v50c0 9 -12 9 -16 16c-5 8 1 25 -11 25zM370 862c27 0 22 -39 38 -54c17 -16 57 -8 57 -36l-1 -50c0 -28 -41 -19 -58 -35
c-17 -15 -12 -54 -39 -54h-64c-27 0 -22 39 -38 54c-17 16 -57 7 -57 35v50c0 28 41 20 58 36c17 15 12 54 39 54h65z" />
    <glyph glyph-name="ring" unicode="&#x2da;" horiz-adv-x="294" 
d="M188 876h-65c-12 0 -6 -17 -11 -25c-5 -7 -17 -7 -17 -16v-50c0 -9 12 -9 16 -16c5 -8 -1 -25 11 -25h64c12 0 6 17 11 25c5 7 17 7 17 16l1 50c0 9 -13 9 -17 16c-5 8 2 25 -10 25zM188 924c27 0 22 -38 38 -53c17 -16 57 -8 57 -36v-50c0 -28 -41 -20 -58 -36
c-17 -15 -12 -53 -39 -53h-65c-27 0 -22 38 -38 53c-17 16 -57 8 -57 36l1 50c0 28 41 20 58 36c17 15 12 53 39 53h64z" />
    <glyph glyph-name="nine" unicode="9" horiz-adv-x="686" 
d="M50 175h103c0 -29 37 -34 50 -57c16 -27 -8 -85 34 -85h200c42 0 18 58 35 85c14 23 51 28 51 57c1 109 3 218 4 327c-13 -8 -25 -17 -33 -29c-26 -40 8 -127 -54 -127h-200c-62 0 -41 89 -74 127c-32 36 -113 28 -112 85l1 170c1 57 81 49 114 85c34 38 15 127 77 127
h200c62 0 41 -89 74 -127c32 -36 113 -28 112 -85l-6 -553c-1 -57 -81 -49 -113 -86c-34 -39 -14 -129 -77 -129h-200c-63 0 -41 90 -74 129c-32 37 -113 29 -112 86zM445 867h-200c-41 0 -18 -56 -35 -83c-14 -22 -52 -28 -52 -56l-1 -170c0 -28 37 -34 50 -56
c16 -27 -8 -83 33 -83h201c41 0 18 56 35 83c14 22 51 28 51 56l2 170c0 28 -38 34 -51 56c-16 27 8 83 -33 83z" />
    <glyph glyph-name="J" unicode="J" horiz-adv-x="616" 
d="M535 900l-7 -749c-1 -54 -78 -43 -109 -76c-32 -34 -16 -115 -73 -115h-181c-57 0 -39 81 -71 115c-31 33 -108 22 -107 76h103c0 -25 34 -28 46 -47c14 -22 -5 -71 30 -71h181c35 0 16 49 31 71c13 19 47 22 47 47l7 749h103z" />
    <glyph glyph-name="Lslash" unicode="&#x141;" horiz-adv-x="658" 
d="M617 0h-505l3 316l-84 -54l1 106l85 54l4 478h103l-4 -411l235 149l-1 -106l-235 -150l-3 -309h401v-73z" />
    <glyph glyph-name="agrave" unicode="&#xe0;" horiz-adv-x="658" 
d="M574 0h-103l1 64c-9 -4 -18 -10 -24 -17c-22 -26 -6 -87 -49 -87h-169c-44 0 -40 62 -69 87c-31 26 -105 8 -104 59l1 89c1 51 74 32 106 58c30 25 26 87 70 87h169c43 0 26 -60 47 -87c6 -7 15 -12 24 -16c1 50 1 101 1 151c0 24 -31 31 -42 51c-4 8 -5 19 -5 30v11
c0 19 -2 36 -23 36h-169c-38 0 -15 -52 -29 -77c-11 -20 -44 -26 -44 -51h-103c1 53 76 46 106 80c32 36 12 121 71 121h168c59 0 38 -85 69 -121c29 -34 105 -27 104 -80zM145 837h129l117 -180h-95zM402 267h-168c-22 0 -17 -30 -30 -43s-43 -8 -43 -29l-1 -89
c0 -21 31 -16 43 -29s6 -44 28 -44h169c22 0 16 31 29 44s43 7 44 28v90c0 21 -30 16 -42 29s-7 43 -29 43z" />
    <glyph glyph-name="asterisk" unicode="*" horiz-adv-x="651" 
d="M283 900h103l-2 -171l148 59l-1 -114l-121 -47l119 -177h-121l-77 114l-79 -114h-121l122 177l-120 47l1 114l147 -59z" />
    <glyph glyph-name="Dcaron" unicode="&#x10e;" horiz-adv-x="882" 
d="M98 0l9 900h459c90 0 54 -128 100 -184c42 -52 152 -45 151 -123l-3 -286c-1 -78 -110 -71 -154 -123c-47 -56 -13 -184 -103 -184h-459zM470 1147h93l-115 -180h-126l-111 180h93l82 -102zM202 73h355c68 0 34 96 63 140c25 38 91 45 91 94l3 286c0 49 -66 56 -90 94
c-28 44 9 140 -59 140h-356z" />
    <glyph glyph-name="Gbreve" unicode="&#x11e;" horiz-adv-x="1001" 
d="M918 0h-103l2 177c-26 -14 -56 -26 -72 -49c-37 -52 2 -168 -80 -168h-351c-97 0 -53 138 -99 199c-41 55 -151 54 -150 133l3 316c1 79 111 78 153 133c47 61 6 199 103 199h351c97 0 53 -138 99 -199c41 -55 151 -54 150 -133h-103c1 51 -66 63 -89 104
c-28 50 18 155 -58 155h-351c-76 0 -32 -105 -61 -155c-24 -41 -90 -53 -91 -104l-3 -316c-1 -51 66 -63 89 -104c28 -50 -18 -155 58 -155h351c60 0 33 86 61 124c25 34 90 36 90 83c0 16 1 32 1 48h-325l1 72h427zM696 1149l-1 -57c0 -40 -56 -25 -81 -45
c-23 -19 -21 -67 -55 -67h-124c-34 0 -30 48 -53 67c-24 20 -81 5 -81 45l1 57h82v-57c0 -16 22 -11 31 -19s7 -28 21 -28h124c14 0 12 20 21 28c10 8 32 3 32 19l1 57h82z" />
    <glyph glyph-name="lacute" unicode="&#x13a;" horiz-adv-x="271" 
d="M84 0l10 980h103l-10 -980h-103zM211 1225h128l-154 -180h-95z" />
    <glyph glyph-name="Ecaron" unicode="&#x11a;" horiz-adv-x="651" 
d="M98 0l9 900h504v-73h-402l-4 -467h350l-1 -72h-350l-2 -215h401l-1 -73h-504zM442 1147h93l-114 -180h-127l-111 180h94l81 -102z" />
    <glyph glyph-name="Cacute" unicode="&#x106;" horiz-adv-x="945" 
d="M921 292c-1 -79 -111 -78 -153 -133c-47 -61 -6 -199 -103 -199h-351c-97 0 -53 138 -99 199c-41 55 -151 54 -150 133l3 316c1 79 111 78 153 133c47 61 6 199 103 199h351c97 0 53 -138 99 -199c41 -55 151 -54 150 -133h-103c1 51 -66 63 -89 104
c-28 50 18 155 -58 155h-351c-76 0 -32 -105 -61 -155c-24 -41 -90 -53 -91 -104l-3 -316c-1 -51 66 -63 89 -104c28 -50 -18 -155 58 -155h351c76 0 32 105 61 155c24 41 90 53 91 104h103zM550 1147h128l-154 -180h-95z" />
    <glyph glyph-name="Rcaron" unicode="&#x158;" horiz-adv-x="707" 
d="M98 0l9 900h359c67 0 47 -97 85 -137c37 -39 129 -26 128 -91l-1 -189c-1 -65 -93 -52 -131 -91c-14 -15 -21 -38 -27 -61l181 -331h-121l-134 255h-242l-3 -255h-103zM414 1147h94l-115 -180h-126l-112 180h94l81 -102zM209 827l-5 -499h256c45 0 25 64 46 93
c19 25 69 26 69 62l2 189c0 36 -50 37 -68 62c-21 29 1 93 -44 93h-256z" />
    <glyph glyph-name="period" unicode="." horiz-adv-x="327" 
d="M165 164c24 0 19 -36 33 -50s48 -8 48 -32c0 -25 -34 -19 -49 -33c-14 -14 -9 -49 -33 -49s-18 35 -32 49s-49 9 -49 33c0 25 34 18 49 32c14 14 9 50 33 50z" />
    <glyph glyph-name="Idieresis" unicode="&#xcf;" horiz-adv-x="327" 
d="M112 0l9 900h103l-9 -900h-103zM47 1102c25 0 18 -35 33 -50s50 -9 50 -34s-36 -19 -51 -34s-9 -50 -34 -50s-18 35 -33 50s-50 9 -50 34s36 19 51 34s9 50 34 50zM297 1102c25 0 19 -35 34 -50s50 -9 50 -34s-36 -19 -51 -34s-9 -50 -34 -50s-18 35 -33 50s-51 9 -51 34
s36 19 51 34s9 50 34 50z" />
    <glyph glyph-name="underscore" unicode="_" horiz-adv-x="658" 
d="M40 -238v73h575l-1 -73h-574z" />
    <glyph glyph-name="Ugrave" unicode="&#xd9;" horiz-adv-x="832" 
d="M746 900l-7 -722c-1 -61 -87 -49 -123 -87c-37 -39 -19 -131 -83 -131h-236c-64 0 -44 92 -80 131c-35 38 -122 26 -121 87l7 722h103l-7 -722c0 -32 44 -34 60 -58c19 -27 -3 -87 39 -87h236c42 0 22 60 41 87c17 24 61 26 61 58l7 722h103zM246 1147h128l117 -180h-95z
" />
    <glyph glyph-name="X" unicode="X" horiz-adv-x="693" 
d="M35 900h119l206 -350l225 350h91l-272 -424l281 -476h-119l-224 380l-244 -380h-90l291 453z" />
    <glyph glyph-name="Sacute" unicode="&#x15a;" horiz-adv-x="728" 
d="M58 151h103c0 -29 40 -27 55 -47c17 -22 1 -71 36 -71h219c35 0 21 49 38 71c16 20 56 18 56 47l2 145c0 29 -41 27 -56 47c-17 22 -1 71 -36 71h-219c-57 0 -43 81 -77 114c-34 34 -118 18 -117 76l2 145c1 58 83 42 118 76c34 33 23 115 80 115h218
c57 0 43 -82 77 -115c34 -34 118 -18 117 -76h-103c0 29 -40 27 -55 47c-17 22 -2 71 -37 71h-218c-35 0 -21 -49 -38 -71c-16 -20 -56 -18 -56 -47l-2 -145c0 -29 40 -27 55 -47c17 -22 2 -71 37 -71h219c57 0 43 -81 77 -114c34 -34 118 -18 117 -76l-2 -145
c-1 -58 -83 -42 -118 -76c-34 -33 -23 -115 -80 -115h-218c-57 0 -44 82 -78 115c-34 34 -117 18 -116 76zM421 1125h128l-154 -180h-95z" />
    <glyph glyph-name="visiblespace" unicode="&#x2420;" horiz-adv-x="560" 
d="M28 0h103l-2 -228h298l2 228h103l-3 -300h-504z" />
    <glyph glyph-name="j" unicode="j" horiz-adv-x="294" 
d="M214 549l-9 -982c0 -50 -63 -66 -85 -107c-9 -16 -10 -37 -10 -59v-29c0 -39 -4 -72 -47 -72h-85c-20 0 -33 7 -39 19l96 54h28c22 0 29 11 29 26c0 22 -14 54 -14 80c0 34 24 57 24 88l9 982h103zM168 792c25 0 18 -35 33 -50s50 -9 50 -34s-36 -19 -51 -34
s-9 -50 -34 -50s-18 35 -33 50s-50 9 -50 34s36 19 51 34s9 50 34 50z" />
    <glyph glyph-name="AE" unicode="&#xc6;" horiz-adv-x="1127" 
d="M14 0l494 900h579v-73h-425l-5 -467h383v-72h-383l-3 -215h425l-1 -73h-527l2 206h-342l-114 -206h-83zM251 280h303l5 561z" />
    <glyph glyph-name="Ucircumflex" unicode="&#xdb;" horiz-adv-x="832" 
d="M746 900l-7 -722c-1 -61 -87 -49 -123 -87c-37 -39 -19 -131 -83 -131h-236c-64 0 -44 92 -80 131c-35 38 -122 26 -121 87l7 722h103l-7 -722c0 -32 44 -34 60 -58c19 -27 -3 -87 39 -87h236c42 0 22 60 41 87c17 24 61 26 61 58l7 722h103zM424 1070l-84 -103h-93
l115 180h126l111 -180h-94z" />
    <glyph glyph-name="oe" unicode="&#x153;" horiz-adv-x="1106" 
d="M1059 116c-1 -54 -76 -34 -109 -62c-31 -27 -27 -94 -74 -94h-186c-65 0 -38 93 -71 134c-13 17 -37 25 -58 34c-21 -9 -44 -17 -58 -34c-34 -41 -9 -134 -74 -134h-185c-65 0 -39 93 -72 134c-30 38 -109 33 -108 89l2 183c1 56 79 51 110 89c34 41 9 134 74 134h186
c65 0 38 -93 71 -134c13 -17 36 -25 57 -34c21 9 44 17 58 34c34 41 10 134 75 134h185c65 0 39 -93 72 -134c30 -38 109 -33 108 -89l-1 -92v-36h-447v-55c0 -28 34 -37 46 -60c4 -8 5 -19 5 -30v-23c0 -20 3 -37 26 -37h186c25 0 18 35 32 50c14 14 48 9 48 33h102z
M435 516h-186c-25 0 -27 -20 -27 -42v-13c0 -13 0 -26 -5 -35c-12 -23 -48 -32 -48 -60l-2 -183c0 -28 35 -37 47 -60c4 -8 5 -19 5 -30c0 -8 -1 -15 -1 -23c0 -20 3 -37 26 -37h186c25 0 27 20 27 42v13c0 13 1 26 6 35c12 23 48 32 48 60l1 183c0 28 -34 37 -46 60
c-4 8 -6 19 -6 30c0 8 1 15 1 23c0 20 -3 37 -26 37zM615 366v-55h343l1 55c0 28 -35 37 -47 60c-4 8 -5 19 -5 30c0 8 1 15 1 23c0 20 -4 37 -27 37h-185c-25 0 -27 -20 -27 -42v-13c0 -13 -1 -26 -6 -35c-12 -23 -48 -32 -48 -60z" />
    <glyph glyph-name="dollar" unicode="$" horiz-adv-x="728" 
d="M58 151h103c0 -29 40 -27 55 -47c17 -22 1 -71 36 -71h219c35 0 21 49 38 71c16 20 56 18 56 47l2 145c0 29 -41 27 -56 47c-17 22 -1 71 -36 71h-219c-57 0 -43 81 -77 114c-34 34 -118 18 -117 76l2 145c1 58 83 42 118 76c34 33 23 115 80 115h57l2 140h103
c0 -47 -2 -93 -2 -140h58c57 0 43 -82 77 -115c34 -34 118 -18 117 -76h-103c0 29 -40 27 -55 47c-17 22 -2 71 -37 71h-218c-35 0 -21 -49 -38 -71c-16 -20 -56 -18 -56 -47l-2 -145c0 -29 40 -27 55 -47c17 -22 2 -71 37 -71h219c57 0 43 -81 77 -114
c34 -34 118 -18 117 -76l-2 -145c-1 -58 -83 -42 -118 -76c-34 -33 -23 -115 -80 -115h-58l-1 -140h-103l2 140h-58c-57 0 -44 82 -78 115c-34 34 -117 18 -116 76z" />
    <glyph glyph-name="dash" horiz-adv-x="441" 
d="M58 238l1 73h330l-1 -73h-330z" />
    <glyph glyph-name="odieresis" unicode="&#xf6;" horiz-adv-x="700" 
d="M234 792c25 0 18 -35 33 -50s50 -9 50 -34s-36 -19 -51 -34s-9 -50 -34 -50s-18 35 -33 50s-51 9 -51 34s36 19 51 34s10 50 35 50zM484 792c25 0 18 -35 33 -50s51 -9 51 -34s-36 -19 -51 -34s-9 -50 -34 -50s-19 35 -34 50s-50 9 -50 34s36 19 51 34s9 50 34 50z
M459 516h-207c-44 0 -19 -61 -36 -90c-14 -24 -53 -30 -53 -60l-2 -183c0 -30 38 -36 52 -60c17 -29 -10 -90 34 -90h207c44 0 19 61 36 90c14 24 54 30 54 60l1 183c0 30 -38 36 -52 60c-17 29 10 90 -34 90zM460 589c65 0 41 -94 75 -134c32 -38 114 -31 113 -89l-2 -183
c-1 -58 -82 -51 -115 -89c-35 -40 -13 -134 -78 -134h-206c-65 0 -41 94 -75 134c-32 38 -115 31 -114 89l2 183c1 58 82 51 115 89c35 40 13 134 78 134h207z" />
    <glyph glyph-name="l" unicode="l" horiz-adv-x="271" 
d="M84 0l10 980h103l-10 -980h-103z" />
    <glyph glyph-name="G" unicode="G" horiz-adv-x="1001" 
d="M918 0h-103l2 177c-26 -14 -56 -26 -72 -49c-37 -52 2 -168 -80 -168h-351c-97 0 -53 138 -99 199c-41 55 -151 54 -150 133l3 316c1 79 111 78 153 133c47 61 6 199 103 199h351c97 0 53 -138 99 -199c41 -55 151 -54 150 -133h-103c1 51 -66 63 -89 104
c-28 50 18 155 -58 155h-351c-76 0 -32 -105 -61 -155c-24 -41 -90 -53 -91 -104l-3 -316c-1 -51 66 -63 89 -104c28 -50 -18 -155 58 -155h351c60 0 33 86 61 124c25 34 90 36 90 83c0 16 1 32 1 48h-325l1 72h427z" />
    <glyph glyph-name="dotaccent" unicode="&#x2d9;" horiz-adv-x="252" 
d="M135 855c25 0 18 -36 33 -51s51 -8 51 -33s-36 -19 -51 -34s-10 -51 -35 -51s-18 36 -33 51s-50 8 -50 33s36 19 51 34s9 51 34 51z" />
    <glyph glyph-name="ncaron" unicode="&#x148;" 
d="M84 0l6 549h103l-1 -84c15 6 30 12 40 23c27 30 10 101 60 101h161c50 0 30 -70 55 -101c24 -29 85 -25 85 -68l-5 -420h-102l4 420c0 20 -25 26 -25 50c0 9 2 20 2 29c0 10 -3 17 -15 17h-161c-29 0 -23 -41 -40 -58s-60 -9 -60 -38l-4 -420h-103zM428 837h93l-114 -180
h-127l-111 180h94l81 -102z" />
    <glyph glyph-name="C" unicode="C" horiz-adv-x="945" 
d="M921 292c-1 -79 -111 -78 -153 -133c-47 -61 -6 -199 -103 -199h-351c-97 0 -53 138 -99 199c-41 55 -151 54 -150 133l3 316c1 79 111 78 153 133c47 61 6 199 103 199h351c97 0 53 -138 99 -199c41 -55 151 -54 150 -133h-103c1 51 -66 63 -89 104
c-28 50 18 155 -58 155h-351c-76 0 -32 -105 -61 -155c-24 -41 -90 -53 -91 -104l-3 -316c-1 -51 66 -63 89 -104c28 -50 -18 -155 58 -155h351c76 0 32 105 61 155c24 41 90 53 91 104h103z" />
    <glyph glyph-name="Ocircumflex" unicode="&#xd4;" horiz-adv-x="980" 
d="M674 867h-351c-76 0 -32 -105 -61 -155c-24 -41 -90 -53 -91 -104l-3 -316c-1 -51 66 -63 89 -104c28 -50 -18 -155 58 -155h351c76 0 32 105 61 155c24 41 90 53 91 104l3 316c1 51 -66 63 -89 104c-28 50 18 155 -58 155zM675 940c97 0 53 -138 99 -199
c41 -55 151 -54 150 -133l-3 -316c-1 -79 -111 -78 -153 -133c-47 -61 -6 -199 -103 -199h-351c-97 0 -53 138 -99 199c-41 55 -151 54 -150 133l3 316c1 79 111 78 153 133c47 61 6 199 103 199h351zM498 1070l-84 -103h-93l115 180h126l111 -180h-93z" />
    <glyph glyph-name="A" unicode="A" horiz-adv-x="777" 
d="M14 0l380 900h7l362 -900h-111l-59 146h-437l-61 -146h-81zM564 219l-184 457l-193 -457h377z" />
    <glyph glyph-name="aring" unicode="&#xe5;" horiz-adv-x="658" 
d="M574 0h-103l1 64c-9 -4 -18 -10 -24 -17c-22 -26 -6 -87 -49 -87h-169c-44 0 -40 62 -69 87c-31 26 -105 8 -104 59l1 89c1 51 74 32 106 58c30 25 26 87 70 87h169c43 0 26 -60 47 -87c6 -7 15 -12 24 -16c1 50 1 101 1 151c0 24 -31 31 -42 51c-4 8 -5 19 -5 30v11
c0 19 -2 36 -23 36h-169c-38 0 -15 -52 -29 -77c-11 -20 -44 -26 -44 -51h-103c1 53 76 46 106 80c32 36 12 121 71 121h168c59 0 38 -85 69 -121c29 -34 105 -27 104 -80zM402 267h-168c-22 0 -17 -30 -30 -43s-43 -8 -43 -29l-1 -89c0 -21 31 -16 43 -29s6 -44 28 -44h169
c22 0 16 31 29 44s43 7 44 28v90c0 21 -30 16 -42 29s-7 43 -29 43zM356 813h-64c-12 0 -6 -17 -11 -25c-5 -7 -17 -7 -17 -16l-1 -50c0 -9 13 -9 17 -16c5 -8 -2 -24 10 -24h65c12 0 6 16 11 24c5 7 17 7 17 16v50c0 9 -12 9 -16 16c-5 8 1 25 -11 25zM357 862
c27 0 22 -39 38 -54c17 -16 57 -8 57 -36l-1 -50c0 -28 -41 -19 -58 -35c-17 -15 -12 -54 -39 -54h-64c-27 0 -22 39 -38 54c-17 16 -57 7 -57 35v50c0 28 41 20 58 36c17 15 12 54 39 54h65z" />
    <glyph glyph-name="ampersand" unicode="&#x26;" horiz-adv-x="868" 
d="M404 486c-31 32 -58 62 -119 62c-30 0 -64 -5 -92 -5c-43 0 -76 10 -75 61l2 145c1 55 78 43 110 76c33 34 18 115 75 115h188c57 0 40 -81 72 -115c31 -33 110 -21 109 -76h-103c0 26 -35 28 -48 47c-15 22 3 71 -31 71h-188c-34 0 -18 -49 -33 -71
c-13 -19 -48 -21 -48 -47l-2 -145c0 -37 24 -44 54 -44c21 0 45 4 67 4c15 0 29 -2 40 -7c40 -18 60 -71 106 -71h330v-72h-147c-1 -138 -4 -276 -5 -414h-371c-53 0 -40 76 -72 107s-110 18 -109 72l1 129c1 54 78 40 111 71c32 31 21 107 74 107h104zM568 414h-269
c-31 0 -17 -45 -32 -64c-13 -18 -49 -17 -49 -42l-1 -129c0 -25 35 -25 48 -43c15 -19 0 -63 31 -63h268z" />
    <glyph glyph-name="igrave" unicode="&#xec;" horiz-adv-x="266" 
d="M81 0l6 549h102l-5 -549h-103zM-37 837h128l117 -180h-95z" />
    <glyph glyph-name="B" unicode="B" horiz-adv-x="735" 
d="M98 0l9 900h387c62 0 31 -88 59 -128c24 -35 90 -37 90 -85l-2 -171c0 -46 -65 -43 -91 -74c-18 -22 -16 -61 -26 -87c13 -20 20 -50 39 -65c34 -27 113 -3 112 -58l-1 -87c-1 -55 -78 -31 -113 -58c-31 -24 -31 -87 -76 -87h-387zM209 827l-4 -450h284c18 0 22 10 22 24
c0 13 -4 29 -4 44c0 32 31 44 31 71l2 171c0 27 -30 39 -30 70c0 15 5 33 5 47c0 13 -5 23 -22 23h-284zM204 304l-2 -231h284c22 0 20 31 34 43c15 13 51 4 51 29l1 87c0 25 -35 16 -50 29c-14 12 -12 43 -34 43h-284z" />
    <glyph glyph-name="dotlessi" unicode="&#x131;" horiz-adv-x="266" 
d="M81 0l6 549h102l-5 -549h-103z" />
    <glyph glyph-name="dotlessj" unicode="&#x237;" horiz-adv-x="294" 
d="M214 549l-9 -982c0 -50 -63 -66 -85 -107c-9 -16 -10 -37 -10 -59v-29c0 -39 -4 -72 -47 -72h-85c-20 0 -33 7 -39 19l96 54h28c22 0 29 11 29 26c0 22 -14 54 -14 80c0 34 24 57 24 88l9 982h103z" />
    <glyph glyph-name="bar" unicode="|" horiz-adv-x="280" 
d="M88 -45l10 990h102l-9 -990h-103z" />
    <glyph glyph-name="x" unicode="x" horiz-adv-x="567" 
d="M38 549h125l133 -188l147 188h97l-198 -253l210 -296h-125l-151 212l-165 -212h-97l217 277z" />
    <glyph glyph-name="tilde" unicode="&#x2dc;" horiz-adv-x="294" 
d="M39 724h-82c0 40 57 29 81 51c23 22 16 75 54 75c46 0 79 -47 125 -47c18 0 11 26 21 37c9 10 32 8 32 24h82c0 -40 -57 -28 -81 -50c-23 -22 -16 -76 -54 -76c-46 0 -79 48 -125 48c-18 0 -11 -26 -21 -37c-9 -10 -32 -9 -32 -25z" />
    <glyph glyph-name="five" unicode="5" horiz-adv-x="672" 
d="M44 179h103c0 -29 37 -35 50 -58c16 -28 -10 -88 33 -88h199c43 0 18 60 35 88c14 23 51 29 51 58l2 179c0 26 -32 36 -43 58c-4 7 -4 17 -4 26c0 10 1 20 1 29c0 18 -4 33 -25 33h-172c-37 0 -66 -27 -73 -61v-27h-103c2 161 3 323 5 484h471l-1 -73h-368l-3 -277
c20 17 45 26 73 26h171c64 0 37 -91 69 -131c29 -37 106 -33 105 -87l-2 -179c-1 -57 -81 -51 -113 -88c-34 -39 -13 -131 -77 -131h-199c-64 0 -40 92 -73 131c-32 37 -113 31 -112 88z" />
    <glyph glyph-name="g" unicode="g" horiz-adv-x="714" 
d="M636 549l-9 -916c-1 -64 -84 -81 -114 -133c-37 -65 20 -200 -77 -200h-199c-22 0 -36 6 -45 18l71 55h174c32 0 40 18 40 43c0 26 -9 59 -9 87c0 58 56 80 56 130l5 522c-13 -8 -24 -17 -32 -29c-26 -40 7 -126 -54 -126h-199c-62 0 -41 88 -74 126
c-32 36 -113 27 -112 84l2 169c1 57 80 48 113 84c34 38 15 126 77 126h199c61 0 26 -86 51 -126c7 -12 20 -21 32 -29l1 115h103zM448 516h-199c-40 0 -19 -56 -35 -82c-14 -22 -51 -27 -51 -55l-2 -169c0 -28 37 -33 50 -55c16 -26 -6 -82 34 -82h199c40 0 18 56 34 82
c14 22 51 27 52 55l1 169c0 28 -37 33 -50 55c-16 26 7 82 -33 82z" />
    <glyph glyph-name="eight" unicode="8" horiz-adv-x="700" 
d="M251 33h200c36 0 19 52 35 75c14 20 51 23 51 50l2 153c0 27 -37 30 -51 50c-16 23 3 75 -33 75h-200c-36 0 -19 -52 -35 -75c-14 -20 -52 -23 -52 -50l-1 -153c0 -27 36 -30 50 -50c16 -23 -2 -75 34 -75zM250 -40c-59 0 -41 84 -74 119c-32 34 -113 23 -112 79l1 153
c1 56 81 45 114 79c24 25 23 76 42 102c-6 21 -7 49 -21 65c-24 27 -84 20 -84 63l1 136c0 44 61 43 85 74c26 34 4 110 58 110h200c54 0 29 -76 55 -110c23 -31 84 -30 84 -74l-2 -136c0 -43 -61 -36 -85 -63c-14 -16 -15 -44 -22 -65c19 -26 16 -77 40 -102
c32 -34 113 -23 112 -79l-2 -153c-1 -56 -80 -45 -113 -79c-34 -35 -18 -119 -77 -119h-200zM456 509c14 0 17 8 17 19s-3 24 -3 36c0 25 24 34 24 56l2 136c0 21 -24 30 -24 55c0 12 4 27 4 38c0 10 -3 18 -17 18h-200c-14 0 -17 -8 -17 -19s3 -24 3 -36
c0 -25 -25 -34 -25 -56l-1 -136c0 -21 23 -30 23 -55c0 -12 -4 -27 -4 -38c0 -10 3 -18 17 -18h201z" />
    <glyph glyph-name="acute" unicode="&#xb4;" horiz-adv-x="280" 
d="M150 900h128l-154 -180h-95z" />
    <glyph glyph-name="numbersign" unicode="#" horiz-adv-x="756" 
d="M31 278l1 74h150l36 196h-156v73h170l51 279h104l-52 -279h159l52 279h103l-51 -279h137l-1 -73h-150l-36 -196h156v-74h-170l-51 -278h-104l52 278h-159l-52 -278h-103l51 278h-137zM444 352l37 196h-159l-37 -196h159z" />
    <glyph glyph-name="U" unicode="U" horiz-adv-x="832" 
d="M746 900l-7 -722c-1 -61 -87 -49 -123 -87c-37 -39 -19 -131 -83 -131h-236c-64 0 -44 92 -80 131c-35 38 -122 26 -121 87l7 722h103l-7 -722c0 -32 44 -34 60 -58c19 -27 -3 -87 39 -87h236c42 0 22 60 41 87c17 24 61 26 61 58l7 722h103z" />
    <glyph glyph-name="percent" unicode="%" horiz-adv-x="1148" 
d="M215 -45l607 990h121l-608 -990h-120zM378 571c0 27 29 31 29 52l1 112c0 16 -20 23 -26 37c-2 4 -2 9 -2 14c0 7 1 15 1 22c0 11 -2 19 -15 19h-100c-13 0 -15 -9 -15 -20v-19c0 -6 0 -12 -2 -16c-7 -14 -26 -21 -26 -37l-2 -112c0 -16 20 -23 26 -37c2 -4 2 -9 2 -14
c0 -7 -1 -15 -1 -22c0 -11 2 -18 15 -18h100c13 0 16 9 16 20c0 6 -1 13 -1 19zM367 900c48 0 31 -69 57 -99c25 -28 87 -22 87 -66l-2 -112c0 -44 -62 -38 -87 -66c-26 -30 -12 -99 -60 -99h-100c-48 0 -31 69 -57 99c-25 28 -86 22 -86 66l1 112c0 44 63 38 88 66
c26 30 11 99 59 99h100zM780 329c0 -27 -29 -31 -29 -52l-1 -112c0 -16 19 -23 25 -37c2 -4 2 -9 2 -14c0 -7 -1 -15 -1 -22c0 -11 3 -19 16 -19h99c13 0 16 9 16 20c0 6 -1 13 -1 19s1 12 3 16c7 14 26 21 26 37l1 112c0 16 -19 23 -25 37c-2 4 -2 9 -2 14c0 7 1 15 1 22
c0 11 -3 18 -16 18h-100c-13 0 -15 -9 -15 -20c0 -6 1 -13 1 -19zM895 441c48 0 31 -68 57 -98c25 -28 87 -22 87 -66l-1 -112c0 -44 -63 -38 -88 -66c-26 -30 -11 -99 -59 -99h-100c-48 0 -31 69 -57 99c-25 28 -87 22 -87 66l1 112c0 44 63 38 88 66c26 30 11 98 59 98
h100z" />
    <glyph glyph-name="iacute" unicode="&#xed;" horiz-adv-x="266" 
d="M81 0l6 549h102l-5 -549h-103zM192 837h129l-155 -180h-95z" />
    <glyph glyph-name="Aogonek" unicode="&#x104;" horiz-adv-x="777" 
d="M756 -564c0 29 30 38 30 63h82c0 -40 -56 -42 -77 -72c-24 -34 2 -109 -51 -109h-104c-53 0 -27 75 -50 109c-20 30 -75 32 -75 72l2 151c1 74 59 130 89 196l71 154h-21l-59 146h-437l-61 -146h-81l380 900h7l362 -900h-8l-97 -213c-21 -47 -62 -85 -63 -137l-2 -151
c0 -24 28 -34 28 -62c0 -13 -4 -28 -4 -40s4 -21 19 -21h104c16 0 20 10 20 22c0 11 -4 26 -4 38zM564 219l-184 457l-193 -457h377z" />
    <glyph glyph-name="ogonek" unicode="&#x2db;" horiz-adv-x="280" 
d="M201 -564c0 29 30 38 30 63h82c0 -40 -56 -42 -77 -72c-24 -34 2 -109 -51 -109h-104c-53 0 -27 75 -50 109c-20 30 -75 32 -75 72l2 151c1 74 59 130 89 196l98 212l55 -58l-97 -213c-21 -47 -62 -85 -63 -137l-1 -151c0 -24 27 -34 27 -62c0 -13 -4 -28 -4 -40
s4 -21 19 -21h104c16 0 20 10 20 22c0 11 -4 26 -4 38z" />
    <glyph glyph-name="Germandbls" horiz-adv-x="1358" 
d="M58 151h103c0 -27 36 -28 50 -47c16 -22 -1 -71 33 -71h199c34 0 18 49 34 71c14 19 52 20 52 47l1 145c0 27 -36 28 -50 47c-16 22 1 71 -33 71h-199c-57 0 -41 80 -74 114c-32 33 -113 20 -112 76l2 145c1 56 80 43 113 76c33 34 19 115 76 115h199
c57 0 41 -81 74 -115c32 -33 112 -20 111 -76h-102c0 27 -37 28 -51 47c-16 22 1 71 -33 71h-199c-34 0 -18 -49 -34 -71c-14 -19 -51 -20 -51 -47l-2 -145c0 -27 36 -28 50 -47c16 -22 0 -71 34 -71h198c57 0 41 -80 74 -114c32 -33 113 -20 112 -76l-1 -145
c-1 -56 -81 -43 -114 -76c-33 -34 -19 -115 -76 -115h-199c-57 0 -41 81 -74 115c-32 33 -112 20 -111 76zM723 151h103c0 -27 36 -28 50 -47c16 -22 -1 -71 33 -71h199c34 0 19 49 35 71c14 19 51 20 51 47l1 145c0 27 -36 28 -50 47c-16 22 1 71 -33 71h-199
c-57 0 -41 80 -74 114c-32 33 -113 20 -112 76l2 145c1 56 80 43 113 76c33 34 19 115 76 115h199c57 0 41 -81 74 -115c32 -33 113 -20 112 -76h-103c0 27 -37 28 -51 47c-16 22 1 71 -33 71h-198c-34 0 -19 -49 -35 -71c-14 -19 -51 -20 -51 -47l-2 -145
c0 -27 37 -28 51 -47c16 -22 -1 -71 33 -71h199c57 0 40 -80 73 -114c32 -33 113 -20 112 -76l-1 -145c-1 -56 -81 -43 -114 -76c-33 -34 -19 -115 -76 -115h-198c-57 0 -41 81 -74 115c-32 33 -113 20 -112 76z" />
    <glyph glyph-name="ntilde" unicode="&#xf1;" 
d="M84 0l6 549h103l-1 -84c15 6 30 12 40 23c27 30 10 101 60 101h161c50 0 30 -70 55 -101c24 -29 85 -25 85 -68l-5 -420h-102l4 420c0 20 -25 26 -25 50c0 9 2 20 2 29c0 10 -3 17 -15 17h-161c-29 0 -23 -41 -40 -58s-60 -9 -60 -38l-4 -420h-103zM229 662h-82
c0 40 57 28 81 50c23 22 16 76 54 76c46 0 79 -48 125 -48c18 0 11 26 21 37c9 10 32 8 32 24h82c0 -40 -57 -28 -81 -50c-23 -22 -17 -76 -55 -76c-46 0 -78 48 -124 48c-18 0 -12 -26 -22 -37c-9 -10 -31 -8 -31 -24z" />
    <glyph glyph-name="E" unicode="E" horiz-adv-x="651" 
d="M98 0l9 900h504v-73h-402l-4 -467h350l-1 -72h-350l-2 -215h401l-1 -73h-504z" />
    <glyph glyph-name="T" unicode="T" horiz-adv-x="644" 
d="M23 827l1 73h615l-1 -73h-256l-8 -827h-103l8 827h-256z" />
    <glyph glyph-name="quotedbl" unicode="&#x22;" horiz-adv-x="413" 
d="M51 900h103l-3 -292h-103zM381 900l-3 -292h-103l3 292h103z" />
    <glyph glyph-name="dieresis" unicode="&#xa8;" horiz-adv-x="294" 
d="M30 855c25 0 18 -36 33 -51s50 -8 50 -33s-36 -19 -51 -34s-9 -51 -34 -51s-18 36 -33 51s-50 8 -50 33s36 19 51 34s9 51 34 51zM280 855c25 0 19 -36 34 -51s50 -8 50 -33s-36 -19 -51 -34s-9 -51 -34 -51s-18 36 -33 51s-51 8 -51 33s36 19 51 34s9 51 34 51z" />
    <glyph glyph-name="slash" unicode="/" horiz-adv-x="525" 
d="M28 -45l368 990h110l-368 -990h-110z" />
    <glyph glyph-name="Acircumflex" unicode="&#xc2;" horiz-adv-x="777" 
d="M14 0l380 900h7l362 -900h-111l-59 146h-437l-61 -146h-81zM564 219l-184 457l-193 -457h377zM397 1070l-84 -103h-93l114 180h127l111 -180h-94z" />
    <glyph glyph-name="Eng" unicode="&#x14a;" horiz-adv-x="875" 
d="M98 0l9 900h7l563 -670l6 670h103l-13 -1333c-1 -52 -69 -65 -94 -107c-30 -52 15 -160 -63 -160h-120c-20 0 -31 7 -38 19l90 54h69c23 0 29 12 29 29c0 21 -9 49 -9 72c0 38 33 59 33 93l5 546l-467 557l-7 -670h-103z" />
    <glyph glyph-name="f" unicode="f" horiz-adv-x="413" 
d="M344 885c0 11 -12 17 -12 30c0 7 3 17 3 23s-2 9 -9 9h-46c-8 0 -9 -4 -9 -10s2 -14 2 -21c0 -13 -13 -19 -13 -31l-3 -336h99l-1 -73h-99c-2 -159 -3 -317 -5 -476h-103l5 476h-99v73h100l3 336c0 37 53 31 74 54c22 24 10 81 50 81h45c40 0 27 -57 49 -81
c21 -23 72 -17 72 -54h-103z" />
    <glyph glyph-name="ecaron" unicode="&#x11b;" horiz-adv-x="693" 
d="M646 116c-1 -56 -80 -34 -115 -62c-32 -26 -30 -94 -78 -94h-206c-65 0 -41 94 -75 134c-32 38 -115 31 -114 89l2 183c1 58 82 51 115 89c35 40 13 134 78 134h207c65 0 41 -94 75 -134c32 -38 114 -31 113 -89c0 -43 -1 -85 -1 -128h-486v-55c0 -30 38 -36 52 -60
c17 -29 -10 -90 34 -90h207c25 0 21 36 36 50c16 15 53 7 53 33h103zM442 837h93l-114 -180h-127l-111 180h94l81 -102zM545 366c0 30 -38 36 -52 60c-17 29 10 90 -34 90h-207c-44 0 -19 -61 -36 -90c-14 -24 -53 -30 -53 -60l-1 -55h383v55z" />
    <glyph glyph-name="rcaron" unicode="&#x159;" horiz-adv-x="494" 
d="M84 0l6 549h103l-1 -105c8 7 14 13 19 22c8 14 8 34 8 54v6c0 33 2 63 38 63h149c60 0 35 -86 65 -123c28 -35 100 -31 99 -82h-103c0 24 -28 33 -37 53c-3 6 -4 13 -4 21c0 10 1 21 1 30c0 16 -3 28 -22 28h-149c-20 0 -23 -14 -23 -31c0 -8 1 -16 1 -24
c0 -9 -1 -17 -4 -24c-10 -20 -38 -30 -39 -53l-4 -384h-103zM363 837h94l-115 -180h-126l-112 180h94l81 -102z" />
    <glyph glyph-name="less" unicode="&#x3c;" horiz-adv-x="686" 
d="M192 275l440 -183l-2 -111l-572 238l1 111l577 238l-1 -111z" />
    <glyph glyph-name="ccedilla" unicode="&#xe7;" horiz-adv-x="685" 
d="M644 183c-1 -58 -82 -51 -115 -89c-35 -40 -12 -134 -77 -134h-89l-47 -129h84c53 0 26 -75 49 -109c20 -30 75 -32 75 -72l-1 -151c0 -40 -56 -42 -77 -72c-24 -34 1 -109 -52 -109h-103c-8 0 -14 2 -19 5l33 53h90c16 0 19 10 19 22c0 11 -3 26 -3 38c0 29 29 38 29 63
l2 151c0 24 -28 34 -28 62c0 13 4 28 4 40s-4 21 -19 21h-181l68 187h-40c-65 0 -41 94 -75 134c-32 38 -114 31 -113 89l2 183c1 58 82 51 115 89c35 40 12 134 77 134h206c65 0 41 -94 75 -134c32 -38 114 -31 113 -89h-103c0 30 -38 36 -52 60c-17 29 10 90 -34 90h-205
c-44 0 -19 -61 -36 -90c-14 -24 -53 -30 -53 -60l-2 -183c0 -30 38 -36 52 -60c17 -29 -10 -90 34 -90h205c44 0 19 61 36 90c14 24 54 30 54 60h102z" />
    <glyph glyph-name="quoteright" unicode="&#x2019;" horiz-adv-x="357" 
d="M189 900h108l-134 -292h-79z" />
    <glyph glyph-name="exclam" unicode="!" horiz-adv-x="411" 
d="M157 299l6 601h103l-6 -601h-103zM208 164c24 0 18 -36 32 -50s49 -8 49 -32c0 -25 -35 -19 -50 -33c-14 -14 -9 -49 -33 -49s-18 35 -32 49s-49 9 -49 33c0 25 34 18 49 32c14 14 10 50 34 50z" />
    <glyph glyph-name="D" unicode="D" horiz-adv-x="882" 
d="M98 0l9 900h459c90 0 54 -128 100 -184c42 -52 152 -45 151 -123l-3 -286c-1 -78 -110 -71 -154 -123c-47 -56 -13 -184 -103 -184h-459zM202 73h355c68 0 34 96 63 140c25 38 91 45 91 94l3 286c0 49 -66 56 -90 94c-28 44 9 140 -59 140h-356z" />
    <glyph glyph-name="three" unicode="3" 
d="M44 151h102c0 -25 34 -28 46 -47c14 -22 -4 -71 30 -71h179c34 0 17 49 32 71c12 19 46 22 46 47l1 145c0 25 -33 28 -45 47c-14 22 4 71 -30 71h-149l1 72h149c34 0 16 49 31 71c12 19 47 22 47 47l1 145c0 25 -33 28 -45 47c-14 22 4 71 -30 71h-180
c-34 0 -16 -49 -31 -71c-12 -19 -47 -22 -47 -47h-102c1 54 77 43 108 76c32 34 17 115 73 115h179c56 0 40 -81 71 -115c31 -33 108 -22 107 -76l-2 -145c-1 -53 -76 -37 -108 -66c-19 -18 -24 -51 -36 -74c14 -26 13 -70 34 -92c31 -33 108 -22 107 -76l-1 -145
c-1 -54 -77 -43 -108 -76c-32 -34 -17 -115 -73 -115h-180c-56 0 -40 81 -71 115c-31 33 -107 22 -106 76z" />
    <glyph glyph-name="zacute" unicode="&#x17a;" horiz-adv-x="518" 
d="M39 476l1 73h450l-1 -7l-285 -469h281l-1 -73h-450v7l285 469h-280zM319 837h128l-154 -180h-95z" />
    <glyph glyph-name="Ydieresis" unicode="&#x178;" horiz-adv-x="728" 
d="M17 900h113l253 -551l264 551h83l-312 -651l-2 -249h-103l2 249zM248 1102c25 0 18 -35 33 -50s50 -9 50 -34s-36 -19 -51 -34s-9 -50 -34 -50s-18 35 -33 50s-50 9 -50 34s35 19 50 34s10 50 35 50zM498 1102c25 0 19 -35 34 -50s50 -9 50 -34s-36 -19 -51 -34
s-9 -50 -34 -50s-19 35 -34 50s-50 9 -50 34s36 19 51 34s9 50 34 50z" />
    <glyph glyph-name="ocircumflex" unicode="&#xf4;" horiz-adv-x="700" 
d="M459 516h-207c-44 0 -19 -61 -36 -90c-14 -24 -53 -30 -53 -60l-2 -183c0 -30 38 -36 52 -60c17 -29 -10 -90 34 -90h207c44 0 19 61 36 90c14 24 54 30 54 60l1 183c0 30 -38 36 -52 60c-17 29 10 90 -34 90zM460 589c65 0 41 -94 75 -134c32 -38 114 -31 113 -89
l-2 -183c-1 -58 -82 -51 -115 -89c-35 -40 -13 -134 -78 -134h-206c-65 0 -41 94 -75 134c-32 38 -115 31 -114 89l2 183c1 58 82 51 115 89c35 40 13 134 78 134h207zM359 759l-84 -102h-93l114 180h126l112 -180h-94z" />
    <glyph glyph-name="Adieresis" unicode="&#xc4;" horiz-adv-x="777" 
d="M14 0l380 900h7l362 -900h-111l-59 146h-437l-61 -146h-81zM272 1102c25 0 18 -35 33 -50s50 -9 50 -34s-36 -19 -51 -34s-9 -50 -34 -50s-18 35 -33 50s-50 9 -50 34s36 19 51 34s9 50 34 50zM522 1102c25 0 19 -35 34 -50s50 -9 50 -34s-36 -19 -51 -34s-9 -50 -34 -50
s-19 35 -34 50s-50 9 -50 34s36 19 51 34s9 50 34 50zM564 219l-184 457l-193 -457h377z" />
    <glyph glyph-name="ae" unicode="&#xe6;" horiz-adv-x="1036" 
d="M628 -40c-68 0 -35 101 -75 139c-6 -42 -72 -27 -101 -52s-25 -87 -69 -87h-153c-44 0 -38 62 -66 87c-30 26 -101 9 -101 59l1 89c0 50 71 32 102 58c29 25 24 87 68 87h153c43 0 24 -60 44 -87c5 -7 12 -11 20 -15c1 50 2 100 2 150c0 23 -29 31 -39 51
c-3 6 -4 14 -4 23c0 8 1 16 1 24c0 16 -3 30 -22 30h-153c-20 0 -23 -15 -23 -33v-17c0 -10 0 -20 -4 -27c-10 -20 -40 -28 -40 -51h-103c1 51 73 46 102 80c31 37 9 121 68 121h154c59 0 36 -84 66 -121c16 -19 46 -26 69 -38c14 6 27 14 36 25c33 41 8 134 73 134h180
c65 0 39 -93 71 -134c30 -37 108 -34 107 -89l-1 -92c0 -12 -1 -24 -1 -36h-436v-56c0 -27 33 -36 45 -59c4 -8 5 -18 5 -28c0 -9 -1 -18 -1 -27c0 -19 4 -35 26 -35h180c25 0 17 35 31 50c13 14 46 10 46 33h103c-1 -53 -75 -34 -108 -62c-31 -27 -26 -94 -73 -94h-180z
M386 267h-153c-21 0 -15 -30 -27 -43c-11 -12 -39 -9 -39 -29l-1 -89c0 -20 28 -17 39 -29c12 -13 5 -44 26 -44h153c21 0 15 31 27 44c11 12 39 9 39 29c0 30 1 59 1 89c0 19 -28 17 -39 29c-12 13 -5 43 -26 43zM889 366c0 27 -34 37 -46 60c-4 8 -4 18 -4 28v27
c0 19 -3 35 -25 35h-180c-24 0 -27 -18 -27 -39c0 -6 1 -12 1 -19c0 -12 -1 -23 -6 -32c-12 -23 -46 -33 -46 -60l-1 -55h333z" />
    <glyph glyph-name="Lcaron" unicode="&#x13d;" horiz-adv-x="644" 
d="M98 0l9 900h103l-8 -827h401l-1 -73h-504zM427 900h108l-134 -292h-79z" />
    <glyph glyph-name="Idotaccent" unicode="&#x130;" horiz-adv-x="327" 
d="M112 0l9 900h103l-9 -900h-103zM172 1102c25 0 18 -35 33 -50s51 -9 51 -34s-36 -19 -51 -34s-9 -50 -34 -50s-19 35 -34 50s-50 9 -50 34s36 19 51 34s9 50 34 50z" />
    <glyph glyph-name="Oslash" unicode="&#xd8;" horiz-adv-x="980" 
d="M674 867h-351c-76 0 -32 -105 -61 -155c-24 -41 -90 -53 -91 -104l-3 -316c0 -36 33 -53 60 -74l493 556c0 46 3 93 -47 93zM675 940c69 0 66 -70 76 -132l82 92h122l-160 -180c49 -36 130 -45 129 -112l-3 -316c-1 -79 -111 -78 -153 -133c-47 -61 -6 -199 -103 -199
h-351c-69 0 -66 70 -76 132l-82 -92h-122l160 180c-49 36 -130 45 -129 112l3 316c1 79 111 78 153 133c47 61 6 199 103 199h351zM268 126c0 -46 -3 -93 47 -93h351c76 0 32 105 61 155c24 41 90 53 91 104l3 316c0 36 -33 53 -60 74z" />
    <glyph glyph-name="Lacute" unicode="&#x139;" horiz-adv-x="644" 
d="M98 0l9 900h103l-8 -827h401l-1 -73h-504zM209 1147h129l-154 -180h-95z" />
    <glyph glyph-name="acircumflex" unicode="&#xe2;" horiz-adv-x="658" 
d="M574 0h-103l1 64c-9 -4 -18 -10 -24 -17c-22 -26 -6 -87 -49 -87h-169c-44 0 -40 62 -69 87c-31 26 -105 8 -104 59l1 89c1 51 74 32 106 58c30 25 26 87 70 87h169c43 0 26 -60 47 -87c6 -7 15 -12 24 -16c1 50 1 101 1 151c0 24 -31 31 -42 51c-4 8 -5 19 -5 30v11
c0 19 -2 36 -23 36h-169c-38 0 -15 -52 -29 -77c-11 -20 -44 -26 -44 -51h-103c1 53 76 46 106 80c32 36 12 121 71 121h168c59 0 38 -85 69 -121c29 -34 105 -27 104 -80zM402 267h-168c-22 0 -17 -30 -30 -43s-43 -8 -43 -29l-1 -89c0 -21 31 -16 43 -29s6 -44 28 -44h169
c22 0 16 31 29 44s43 7 44 28v90c0 21 -30 16 -42 29s-7 43 -29 43zM323 759l-83 -102h-94l115 180h126l112 -180h-94z" />
    <glyph glyph-name="one" unicode="1" horiz-adv-x="476" 
d="M222 0l7 738l-166 -85l1 112l263 135h7l-9 -900h-103z" />
    <glyph glyph-name="z" unicode="z" horiz-adv-x="518" 
d="M39 476l1 73h450l-1 -7l-285 -469h281l-1 -73h-450v7l285 469h-280z" />
    <glyph glyph-name="otilde" unicode="&#xf5;" horiz-adv-x="700" 
d="M243 662h-82c0 40 57 28 81 50c23 22 16 76 54 76c46 0 79 -48 125 -48c18 0 11 26 21 37c9 10 32 8 32 24h82c0 -40 -57 -28 -81 -50c-23 -22 -17 -76 -55 -76c-46 0 -78 48 -124 48c-18 0 -12 -26 -22 -37c-9 -10 -31 -8 -31 -24zM459 516h-207c-44 0 -19 -61 -36 -90
c-14 -24 -53 -30 -53 -60l-2 -183c0 -30 38 -36 52 -60c17 -29 -10 -90 34 -90h207c44 0 19 61 36 90c14 24 54 30 54 60l1 183c0 30 -38 36 -52 60c-17 29 10 90 -34 90zM460 589c65 0 41 -94 75 -134c32 -38 114 -31 113 -89l-2 -183c-1 -58 -82 -51 -115 -89
c-35 -40 -13 -134 -78 -134h-206c-65 0 -41 94 -75 134c-32 38 -115 31 -114 89l2 183c1 58 82 51 115 89c35 40 13 134 78 134h207z" />
    <glyph glyph-name="IJ" unicode="&#x132;" horiz-adv-x="847" 
d="M766 900l-7 -749c-1 -52 -75 -43 -105 -76c-31 -34 -15 -115 -71 -115h-167c-56 0 -37 81 -68 115c-30 33 -104 24 -103 76h103c0 -24 31 -28 42 -47c13 -23 -8 -71 27 -71h167c35 0 15 48 29 71c11 19 43 23 43 47l7 749h103zM112 0l9 900h103l-9 -900h-103z" />
    <glyph glyph-name="Zacute" unicode="&#x179;" horiz-adv-x="714" 
d="M42 827l1 73h647v-7l-494 -820h486l-1 -73h-647v7l493 820h-485zM417 1147h128l-154 -180h-95z" />
    <glyph glyph-name="oacute" unicode="&#xf3;" horiz-adv-x="700" 
d="M410 837h128l-154 -180h-95zM459 516h-207c-44 0 -19 -61 -36 -90c-14 -24 -53 -30 -53 -60l-2 -183c0 -30 38 -36 52 -60c17 -29 -10 -90 34 -90h207c44 0 19 61 36 90c14 24 54 30 54 60l1 183c0 30 -38 36 -52 60c-17 29 10 90 -34 90zM460 589c65 0 41 -94 75 -134
c32 -38 114 -31 113 -89l-2 -183c-1 -58 -82 -51 -115 -89c-35 -40 -13 -134 -78 -134h-206c-65 0 -41 94 -75 134c-32 38 -115 31 -114 89l2 183c1 58 82 51 115 89c35 40 13 134 78 134h207z" />
    <glyph glyph-name="two" unicode="2" 
d="M64 749c1 54 77 43 108 76c32 34 17 115 73 115h179c56 0 40 -81 71 -115c31 -33 108 -22 107 -76l-2 -145c-1 -54 -77 -43 -108 -76c-32 -34 -17 -114 -73 -114h-179c-24 0 -27 -19 -27 -40c0 -6 1 -11 1 -17c0 -12 -1 -23 -6 -32c-12 -23 -46 -32 -46 -59l-2 -193h420
l-1 -73h-523c1 89 2 177 3 266c1 55 77 51 108 88c33 40 8 132 73 132h180c34 0 16 49 31 71c12 19 47 22 47 47l1 145c0 25 -33 28 -45 47c-14 22 4 71 -30 71h-180c-34 0 -16 -49 -31 -71c-12 -19 -46 -22 -46 -47h-103z" />
    <glyph glyph-name="question" unicode="?" horiz-adv-x="616" 
d="M246 299l2 187h132c34 0 15 48 28 71c11 19 41 24 41 47l2 145c0 23 -30 28 -41 47c-13 23 7 71 -27 71h-161c-34 0 -15 -48 -28 -71c-11 -19 -42 -24 -42 -47h-102c1 52 73 43 103 76c31 34 14 115 70 115h161c56 0 38 -81 68 -115c29 -33 103 -24 102 -76l-2 -145
c-1 -52 -73 -43 -103 -76c-31 -34 -14 -114 -70 -114h-29l-1 -115h-103zM296 164c24 0 18 -36 32 -50s49 -8 49 -32c0 -25 -35 -19 -50 -33c-14 -14 -9 -49 -33 -49s-18 35 -32 49s-49 9 -49 33c0 25 35 18 50 32c14 14 9 50 33 50z" />
    <glyph glyph-name="Otilde" unicode="&#xd5;" horiz-adv-x="980" 
d="M382 972h-82c0 40 57 28 81 50c23 22 17 76 55 76c46 0 79 -48 125 -48c18 0 11 26 21 37c9 10 31 8 31 24h83c0 -40 -58 -28 -82 -50c-23 -22 -16 -76 -54 -76c-46 0 -79 48 -125 48c-18 0 -11 -26 -21 -37c-9 -10 -32 -8 -32 -24zM674 867h-351
c-76 0 -32 -105 -61 -155c-24 -41 -90 -53 -91 -104l-3 -316c-1 -51 66 -63 89 -104c28 -50 -18 -155 58 -155h351c76 0 32 105 61 155c24 41 90 53 91 104l3 316c1 51 -66 63 -89 104c-28 50 18 155 -58 155zM675 940c97 0 53 -138 99 -199c41 -55 151 -54 150 -133
l-3 -316c-1 -79 -111 -78 -153 -133c-47 -61 -6 -199 -103 -199h-351c-97 0 -53 138 -99 199c-41 55 -151 54 -150 133l3 316c1 79 111 78 153 133c47 61 6 199 103 199h351z" />
    <glyph glyph-name="racute" unicode="&#x155;" horiz-adv-x="494" 
d="M84 0l6 549h103l-1 -105c8 7 14 13 19 22c8 14 8 34 8 54v6c0 33 2 63 38 63h149c60 0 35 -86 65 -123c28 -35 100 -31 99 -82h-103c0 24 -28 33 -37 53c-3 6 -4 13 -4 21c0 10 1 21 1 30c0 16 -3 28 -22 28h-149c-20 0 -23 -14 -23 -31c0 -8 1 -16 1 -24
c0 -9 -1 -17 -4 -24c-10 -20 -38 -30 -39 -53l-4 -384h-103zM331 837h128l-154 -180h-95z" />
    <glyph glyph-name="hyphen" unicode="-" horiz-adv-x="406" 
d="M58 238l1 73h294l-1 -73h-294z" />
    <glyph glyph-name="guilsinglright" unicode="&#x203a;" horiz-adv-x="385" 
d="M326 274l-149 -274h-115l150 274l-144 275h114z" />
    <glyph glyph-name="zcaron" unicode="&#x17e;" horiz-adv-x="518" 
d="M39 476l1 73h450l-1 -7l-285 -469h281l-1 -73h-450v7l285 469h-280zM351 837h93l-115 -180h-126l-111 180h93l82 -102z" />
    <glyph glyph-name="q" unicode="q" horiz-adv-x="714" 
d="M624 -660h-103l8 784c-13 -9 -25 -18 -32 -30c-26 -43 10 -134 -55 -134h-199c-65 0 -39 94 -73 134c-31 38 -113 32 -112 89l2 183c1 57 81 51 113 89c34 40 12 134 77 134h199c65 0 26 -91 51 -134c7 -12 20 -21 32 -30l1 124h103zM448 516h-199c-44 0 -18 -61 -35 -90
c-14 -23 -51 -31 -51 -60l-2 -183c0 -29 37 -37 50 -60c6 -10 6 -24 6 -38v-8c0 -23 1 -44 27 -44h199c44 0 18 61 35 90c14 23 52 31 52 60l1 183c0 29 -37 37 -50 60c-6 10 -6 24 -6 38v8c0 23 -1 44 -27 44z" />
    <glyph glyph-name="sacute" unicode="&#x15b;" horiz-adv-x="560" 
d="M43 97h103c0 -19 26 -15 37 -26s5 -38 24 -38h146c19 0 15 27 26 38s37 7 37 26l1 77c0 19 -26 15 -37 26s-6 38 -25 38h-145c-42 0 -38 59 -66 82c-30 25 -98 7 -98 55l1 77c0 48 69 30 99 55c28 23 25 82 67 82h146c42 0 37 -59 65 -82c30 -25 99 -7 99 -55h-103
c0 19 -26 15 -37 26s-6 38 -25 38h-146c-19 0 -14 -27 -25 -38s-37 -7 -37 -26l-1 -77c0 -19 26 -15 37 -26s5 -38 24 -38h146c42 0 37 -59 65 -82c30 -25 99 -7 99 -55l-1 -77c0 -48 -69 -30 -99 -55c-28 -23 -25 -82 -67 -82h-146c-42 0 -37 59 -65 82
c-30 25 -99 7 -99 55zM340 837h128l-154 -180h-95z" />
    <glyph glyph-name="ohungarumlaut" unicode="&#x151;" horiz-adv-x="700" 
d="M186 657l111 180h125l-143 -180h-93zM506 837h125l-144 -180h-92zM459 516h-207c-44 0 -19 -61 -36 -90c-14 -24 -53 -30 -53 -60l-2 -183c0 -30 38 -36 52 -60c17 -29 -10 -90 34 -90h207c44 0 19 61 36 90c14 24 54 30 54 60l1 183c0 30 -38 36 -52 60
c-17 29 10 90 -34 90zM460 589c65 0 41 -94 75 -134c32 -38 114 -31 113 -89l-2 -183c-1 -58 -82 -51 -115 -89c-35 -40 -13 -134 -78 -134h-206c-65 0 -41 94 -75 134c-32 38 -115 31 -114 89l2 183c1 58 82 51 115 89c35 40 13 134 78 134h207z" />
    <glyph glyph-name="Ncaron" unicode="&#x147;" horiz-adv-x="875" 
d="M98 0l9 900h7l563 -670l6 670h103l-9 -900h-7l-562 670l-7 -670h-103zM529 1147h94l-115 -180h-126l-111 180h93l82 -102z" />
    <glyph glyph-name="v" unicode="v" horiz-adv-x="588" 
d="M13 549h116l180 -357l188 357h89l-288 -549h-7z" />
    <glyph glyph-name="Igrave" unicode="&#xcc;" horiz-adv-x="327" 
d="M112 0l9 900h103l-9 -900h-103zM-6 1147h128l117 -180h-95z" />
    <glyph glyph-name="zero" unicode="0" horiz-adv-x="728" 
d="M473 867h-200c-32 0 -39 -18 -39 -44c0 -23 6 -52 6 -77c0 -60 -54 -87 -55 -138l-3 -316c-1 -50 52 -78 52 -135c0 -27 -8 -58 -8 -82s8 -42 39 -42h200c32 0 39 18 39 44c0 23 -6 52 -6 77c0 60 54 87 55 138l3 316c1 50 -52 78 -52 135c0 27 8 58 8 82s-8 42 -39 42z
M474 940c92 0 42 -129 77 -192c29 -53 109 -76 108 -140l-3 -316c-1 -64 -81 -87 -111 -140c-37 -63 11 -192 -81 -192h-200c-92 0 -42 129 -77 192c-29 53 -109 76 -108 140l3 316c1 64 81 87 111 140c37 63 -11 192 81 192h200z" />
    <glyph glyph-name="bracketleft" unicode="[" horiz-adv-x="392" 
d="M120 -660l16 1605h223l-1 -73h-120l-15 -1459h121l-1 -73h-223z" />
    <glyph glyph-name="ograve" unicode="&#xf2;" horiz-adv-x="700" 
d="M180 837h129l117 -180h-95zM459 516h-207c-44 0 -19 -61 -36 -90c-14 -24 -53 -30 -53 -60l-2 -183c0 -30 38 -36 52 -60c17 -29 -10 -90 34 -90h207c44 0 19 61 36 90c14 24 54 30 54 60l1 183c0 30 -38 36 -52 60c-17 29 10 90 -34 90zM460 589c65 0 41 -94 75 -134
c32 -38 114 -31 113 -89l-2 -183c-1 -58 -82 -51 -115 -89c-35 -40 -13 -134 -78 -134h-206c-65 0 -41 94 -75 134c-32 38 -115 31 -114 89l2 183c1 58 82 51 115 89c35 40 13 134 78 134h207z" />
    <glyph glyph-name="yacute" unicode="&#xfd;" horiz-adv-x="588" 
d="M13 549h113l183 -411l191 411h86l-562 -1209h-86l313 674zM354 837h128l-154 -180h-95z" />
    <glyph glyph-name="w" unicode="w" horiz-adv-x="903" 
d="M13 549h116l187 -364l97 181l-94 183h116l37 -72l39 72h84l-81 -153l108 -211l194 364h85l-293 -549h-7l-146 285l-153 -285h-7z" />
    <glyph glyph-name="r" unicode="r" horiz-adv-x="494" 
d="M84 0l6 549h103l-1 -105c8 7 14 13 19 22c8 14 8 34 8 54v6c0 33 2 63 38 63h149c60 0 35 -86 65 -123c28 -35 100 -31 99 -82h-103c0 24 -28 33 -37 53c-3 6 -4 13 -4 21c0 10 1 21 1 30c0 16 -3 28 -22 28h-149c-20 0 -23 -14 -23 -31c0 -8 1 -16 1 -24
c0 -9 -1 -17 -4 -24c-10 -20 -38 -30 -39 -53l-4 -384h-103z" />
    <glyph glyph-name="I" unicode="I" horiz-adv-x="327" 
d="M112 0l9 900h103l-9 -900h-103z" />
    <glyph glyph-name="ecircumflex" unicode="&#xea;" horiz-adv-x="693" 
d="M646 116c-1 -56 -80 -34 -115 -62c-32 -26 -30 -94 -78 -94h-206c-65 0 -41 94 -75 134c-32 38 -115 31 -114 89l2 183c1 58 82 51 115 89c35 40 13 134 78 134h207c65 0 41 -94 75 -134c32 -38 114 -31 113 -89c0 -43 -1 -85 -1 -128h-486v-55c0 -30 38 -36 52 -60
c17 -29 -10 -90 34 -90h207c25 0 21 36 36 50c16 15 53 7 53 33h103zM545 366c0 30 -38 36 -52 60c-17 29 10 90 -34 90h-207c-44 0 -19 -61 -36 -90c-14 -24 -53 -30 -53 -60l-1 -55h383v55zM359 759l-84 -102h-93l114 180h126l112 -180h-94z" />
    <glyph glyph-name="dcroat" unicode="&#x111;" horiz-adv-x="735" 
d="M631 0h-103l1 124c-13 -9 -25 -18 -32 -30c-26 -43 10 -134 -55 -134h-199c-65 0 -39 94 -73 134c-31 38 -113 32 -112 89l2 183c1 57 81 51 113 89c34 40 12 134 77 134h199c65 0 26 -91 51 -134c7 -12 20 -21 32 -30c1 107 2 216 3 323h-184l1 72h184l1 160h103
l-1 -160h91l-1 -72h-91c-2 -249 -5 -499 -7 -748zM448 516h-199c-44 0 -18 -61 -35 -90c-14 -23 -51 -31 -51 -60l-2 -183c0 -29 37 -37 50 -60c6 -10 6 -24 6 -38v-8c0 -23 1 -44 27 -44h199c44 0 18 61 35 90c13 23 50 30 51 59c1 61 1 123 2 184c0 29 -37 37 -50 60
c-6 10 -6 24 -6 38v8c0 23 -1 44 -27 44z" />
    <glyph glyph-name="OE" unicode="&#x152;" horiz-adv-x="1176" 
d="M595 867h-295c-39 0 -45 -27 -45 -61c0 -15 1 -31 1 -46c0 -18 -1 -35 -8 -48c-20 -39 -77 -58 -77 -104l-3 -316c0 -46 55 -65 74 -104c6 -12 8 -27 8 -43c0 -19 -2 -38 -2 -56c0 -31 6 -56 43 -56h296c39 0 44 27 44 61c0 15 -1 31 -1 46c0 18 2 35 9 48
c20 39 76 58 76 104c1 106 2 210 3 316v1c0 46 -55 64 -74 103c-6 12 -7 27 -7 43c0 19 2 38 2 56c0 31 -7 56 -44 56zM596 940c97 0 47 -137 89 -199c9 -13 21 -22 34 -31l2 190h417l-1 -73h-314l-2 -218v-1c-1 -83 -1 -165 -2 -248h262l-1 -72h-262l-2 -215h313v-73h-417
l2 190c-14 -9 -25 -18 -34 -31c-44 -62 3 -199 -94 -199h-295c-97 0 -48 137 -90 199c-37 54 -137 60 -136 133l3 316c1 73 101 79 139 133c44 62 -4 199 93 199h296z" />
    <glyph glyph-name="Atilde" unicode="&#xc3;" horiz-adv-x="777" 
d="M14 0l380 900h7l362 -900h-111l-59 146h-437l-61 -146h-81zM281 972h-82c0 40 57 28 81 50c23 22 16 76 54 76c46 0 79 -48 125 -48c18 0 11 26 21 37c9 10 32 8 32 24h82c0 -40 -57 -28 -81 -50c-23 -22 -16 -76 -54 -76c-46 0 -79 48 -125 48c-18 0 -11 -26 -21 -37
c-9 -10 -32 -8 -32 -24zM564 219l-184 457l-193 -457h377z" />
    <glyph glyph-name="dcaron" unicode="&#x10f;" horiz-adv-x="721" 
d="M631 0h-103l1 124c-13 -9 -25 -18 -32 -30c-26 -43 10 -134 -55 -134h-199c-65 0 -39 94 -73 134c-31 38 -113 32 -112 89l2 183c1 57 81 51 113 89c34 40 12 134 77 134h199c65 0 26 -91 51 -134c7 -12 20 -21 32 -30l5 555h103zM792 980h107l-133 -292h-80zM448 516
h-199c-44 0 -18 -61 -35 -90c-14 -23 -51 -31 -51 -60l-2 -183c0 -29 37 -37 50 -60c6 -10 6 -24 6 -38v-8c0 -23 1 -44 27 -44h199c44 0 18 61 35 90c13 23 50 30 51 59c1 61 1 123 2 184c0 29 -37 37 -50 60c-6 10 -6 24 -6 38v8c0 23 -1 44 -27 44z" />
    <glyph glyph-name="parenright" unicode=")" horiz-adv-x="385" 
d="M134 -764l-12 72c48 4 62 31 62 69c0 60 -36 147 -36 216c0 11 1 21 3 31c15 68 67 124 68 194l6 628c1 70 -51 126 -64 194c-2 9 -2 17 -2 27c0 71 41 162 41 223c0 36 -15 62 -62 66l13 72c51 -9 66 -45 66 -92c0 -62 -25 -143 -25 -211c0 -130 137 -168 136 -279
l-6 -628c-1 -91 -102 -139 -132 -222c-7 -19 -10 -40 -10 -63c0 -65 21 -141 21 -200c0 -50 -14 -88 -67 -97z" />
    <glyph glyph-name="Thorn" unicode="&#xde;" horiz-adv-x="728" 
d="M98 0l9 900h103l-1 -144h255c64 0 48 -90 85 -127c38 -37 130 -22 129 -86l-2 -172c-1 -64 -92 -48 -130 -85s-24 -128 -88 -128h-255l-2 -158h-103zM208 684l-4 -453h255c41 0 25 58 46 84c19 24 69 21 69 56l1 172c0 35 -48 32 -67 56c-20 26 -3 85 -44 85h-256z" />
    <glyph glyph-name="eth" unicode="&#xf0;" horiz-adv-x="735" 
d="M234 696l1 78l128 43c-42 59 -90 113 -144 163h139c38 -41 73 -84 104 -129l207 70l-1 -78l-165 -56c106 -178 164 -382 164 -593v-11c-1 -59 -85 -51 -119 -89c-36 -40 -13 -134 -79 -134h-218c-66 0 -42 94 -77 134c-33 38 -117 30 -116 89l2 183c1 59 84 51 118 89
c36 40 14 134 80 134h217c5 0 10 -1 14 -2c-23 58 -51 114 -84 167zM544 398c-12 8 -27 16 -34 28c-17 29 8 90 -36 90h-217c-44 0 -20 -61 -38 -90c-15 -24 -56 -29 -56 -60l-2 -183c0 -31 40 -36 55 -60c17 -29 -8 -90 36 -90h218c44 0 19 61 37 90c15 24 57 29 57 60v11
c0 69 -7 137 -20 204zM532 452c-4 17 -8 33 -13 49c1 -19 4 -36 13 -49z" />
    <glyph glyph-name="aogonek" unicode="&#x105;" horiz-adv-x="658" 
d="M578 -564c0 29 29 38 29 63h83c0 -40 -56 -42 -77 -72c-24 -34 1 -109 -52 -109h-103c-53 0 -27 75 -50 109c-20 30 -75 32 -75 72l1 151c1 74 60 130 90 196l71 154h-24l1 64c-9 -4 -18 -10 -24 -17c-22 -26 -6 -87 -49 -87h-169c-44 0 -40 62 -69 87
c-31 26 -105 8 -104 59l1 89c1 51 74 32 106 58c30 25 26 87 70 87h169c43 0 26 -60 47 -87c6 -7 15 -12 24 -16c1 50 1 101 1 151c0 24 -31 31 -42 51c-4 8 -5 19 -5 30v11c0 19 -2 36 -23 36h-169c-38 0 -15 -52 -29 -77c-11 -20 -44 -26 -44 -51h-103c1 53 76 46 106 80
c32 36 12 121 71 121h168c59 0 38 -85 69 -121c29 -34 105 -27 104 -80l-4 -385l3 -3l-98 -213c-21 -47 -61 -85 -62 -137l-2 -151c0 -24 28 -34 28 -62c0 -13 -4 -28 -4 -40s4 -21 19 -21h104c16 0 19 10 19 22c0 11 -3 26 -3 38zM402 267h-168c-22 0 -17 -30 -30 -43
s-43 -8 -43 -29l-1 -89c0 -21 31 -16 43 -29s6 -44 28 -44h169c22 0 16 31 29 44s43 7 44 28v90c0 21 -30 16 -42 29s-7 43 -29 43z" />
    <glyph glyph-name="ccaron" unicode="&#x10d;" horiz-adv-x="685" 
d="M644 183c-1 -58 -82 -51 -115 -89c-35 -40 -12 -134 -77 -134h-206c-65 0 -41 94 -75 134c-32 38 -114 31 -113 89l2 183c1 58 82 51 115 89c35 40 12 134 77 134h206c65 0 41 -94 75 -134c32 -38 114 -31 113 -89h-103c0 30 -38 36 -52 60c-17 29 10 90 -34 90h-205
c-44 0 -19 -61 -36 -90c-14 -24 -53 -30 -53 -60l-2 -183c0 -30 38 -36 52 -60c17 -29 -10 -90 34 -90h205c44 0 19 61 36 90c14 24 54 30 54 60h102zM441 837h93l-114 -180h-126l-112 180h94l81 -102z" />
    <glyph glyph-name="cacute" unicode="&#x107;" horiz-adv-x="685" 
d="M644 183c-1 -58 -82 -51 -115 -89c-35 -40 -12 -134 -77 -134h-206c-65 0 -41 94 -75 134c-32 38 -114 31 -113 89l2 183c1 58 82 51 115 89c35 40 12 134 77 134h206c65 0 41 -94 75 -134c32 -38 114 -31 113 -89h-103c0 30 -38 36 -52 60c-17 29 10 90 -34 90h-205
c-44 0 -19 -61 -36 -90c-14 -24 -53 -30 -53 -60l-2 -183c0 -30 38 -36 52 -60c17 -29 -10 -90 34 -90h205c44 0 19 61 36 90c14 24 54 30 54 60h102zM409 837h128l-154 -180h-95z" />
    <glyph glyph-name="colon" unicode=":" horiz-adv-x="327" 
d="M165 164c24 0 19 -36 33 -50s48 -8 48 -32c0 -25 -34 -19 -49 -33c-14 -14 -9 -49 -33 -49s-18 35 -32 49s-49 9 -49 33c0 25 34 18 49 32c14 14 9 50 33 50zM169 549c24 0 19 -35 33 -49s48 -9 48 -33c0 -25 -34 -18 -49 -32c-14 -14 -9 -50 -33 -50s-19 36 -33 50
s-48 8 -48 32c0 25 34 19 49 33c14 14 9 49 33 49z" />
    <glyph glyph-name="s" unicode="s" horiz-adv-x="560" 
d="M43 97h103c0 -19 26 -15 37 -26s5 -38 24 -38h146c19 0 15 27 26 38s37 7 37 26l1 77c0 19 -26 15 -37 26s-6 38 -25 38h-145c-42 0 -38 59 -66 82c-30 25 -98 7 -98 55l1 77c0 48 69 30 99 55c28 23 25 82 67 82h146c42 0 37 -59 65 -82c30 -25 99 -7 99 -55h-103
c0 19 -26 15 -37 26s-6 38 -25 38h-146c-19 0 -14 -27 -25 -38s-37 -7 -37 -26l-1 -77c0 -19 26 -15 37 -26s5 -38 24 -38h146c42 0 37 -59 65 -82c30 -25 99 -7 99 -55l-1 -77c0 -48 -69 -30 -99 -55c-28 -23 -25 -82 -67 -82h-146c-42 0 -37 59 -65 82
c-30 25 -99 7 -99 55z" />
    <glyph glyph-name="Ecircumflex" unicode="&#xca;" horiz-adv-x="651" 
d="M98 0l9 900h504v-73h-402l-4 -467h350l-1 -72h-350l-2 -215h401l-1 -73h-504zM359 1070l-84 -103h-93l114 180h126l112 -180h-94z" />
    <glyph glyph-name="F" unicode="F" horiz-adv-x="630" 
d="M98 0l9 900h504v-73h-402l-4 -467h350l-1 -72h-350l-3 -288h-103z" />
    <glyph glyph-name="bracketright" unicode="]" horiz-adv-x="392" 
d="M52 945h223l-16 -1605h-224l1 73h120l15 1459h-120z" />
    <glyph glyph-name="Scaron" unicode="&#x160;" horiz-adv-x="728" 
d="M58 151h103c0 -29 40 -27 55 -47c17 -22 1 -71 36 -71h219c35 0 21 49 38 71c16 20 56 18 56 47l2 145c0 29 -41 27 -56 47c-17 22 -1 71 -36 71h-219c-57 0 -43 81 -77 114c-34 34 -118 18 -117 76l2 145c1 58 83 42 118 76c34 33 23 115 80 115h218
c57 0 43 -82 77 -115c34 -34 118 -18 117 -76h-103c0 29 -40 27 -55 47c-17 22 -2 71 -37 71h-218c-35 0 -21 -49 -38 -71c-16 -20 -56 -18 -56 -47l-2 -145c0 -29 40 -27 55 -47c17 -22 2 -71 37 -71h219c57 0 43 -81 77 -114c34 -34 118 -18 117 -76l-2 -145
c-1 -58 -83 -42 -118 -76c-34 -33 -23 -115 -80 -115h-218c-57 0 -44 82 -78 115c-34 34 -117 18 -116 76zM453 1125h94l-115 -180h-126l-112 180h94l81 -102z" />
    <glyph glyph-name="ffl" unicode="&#xfb04;" horiz-adv-x="973" 
d="M684 885c0 13 -16 17 -16 32c0 6 1 13 1 19s-1 11 -9 11h-58c-8 0 -10 -5 -10 -12c0 -5 1 -11 1 -17c0 -16 -16 -20 -16 -33l-4 -336h113l-1 -73h-112l-5 -476h-103l5 476h-216c-2 -159 -3 -317 -5 -476h-103l5 476h-97v73h97l4 336c0 38 55 31 77 54c23 24 12 81 52 81
h57c40 0 28 -57 50 -81c22 -23 76 -16 76 -54h-102c0 13 -16 17 -16 32c0 6 1 13 1 19s-1 11 -9 11h-58c-8 0 -10 -5 -10 -12c0 -5 1 -11 1 -17c0 -16 -16 -20 -16 -33l-4 -336h217l3 336c0 38 55 31 77 54c23 24 12 81 52 81h57c40 0 29 -57 51 -81c22 -23 75 -16 75 -54
h-102zM787 0l9 980h103l-9 -980h-103z" />
    <glyph glyph-name="H" unicode="H" horiz-adv-x="840" 
d="M98 0l9 900h103l-5 -540h437l5 540h103l-9 -900h-103l3 288h-437l-3 -288h-103z" />
    <glyph glyph-name="at" unicode="@" horiz-adv-x="938" 
d="M897 162c-1 -74 -106 -44 -152 -81c-43 -34 -40 -121 -102 -121h-349c-97 0 -53 138 -99 199c-41 55 -151 55 -150 133l3 316c1 78 111 78 153 133c47 61 5 199 102 199h350c97 0 53 -138 99 -199c41 -55 151 -55 150 -133l-3 -228c0 -49 -69 -32 -99 -58
c-29 -25 -23 -88 -67 -88h-177l1 109c-4 -4 -8 -7 -11 -12c-19 -31 8 -97 -39 -97h-117c-48 0 -33 68 -60 97c-26 28 -91 18 -91 64l2 110c0 46 65 36 92 64c27 29 14 97 62 97h116c47 0 20 -66 38 -97c3 -5 6 -8 10 -12l1 109h103l-3 -360h73c22 0 15 32 26 45s38 10 38 29
l2 228c1 51 -66 63 -89 104c-28 50 18 155 -58 155h-349c-76 0 -33 -105 -62 -155c-24 -41 -89 -53 -90 -104l-3 -316c-1 -51 65 -63 88 -104c28 -50 -18 -155 58 -155h350c39 0 34 56 60 78c27 23 90 7 90 51h103zM510 593h-116c-26 0 -10 -36 -20 -53
c-8 -14 -31 -18 -31 -35l-1 -110c0 -17 22 -21 30 -35c3 -6 3 -13 3 -21v-8c0 -13 1 -25 16 -25h116c26 0 11 37 21 54c8 14 30 18 30 35l1 110c0 17 -22 21 -30 35c-3 6 -3 13 -3 21v8c0 13 -1 24 -16 24z" />
    <glyph glyph-name="adieresis" unicode="&#xe4;" horiz-adv-x="658" 
d="M574 0h-103l1 64c-9 -4 -18 -10 -24 -17c-22 -26 -6 -87 -49 -87h-169c-44 0 -40 62 -69 87c-31 26 -105 8 -104 59l1 89c1 51 74 32 106 58c30 25 26 87 70 87h169c43 0 26 -60 47 -87c6 -7 15 -12 24 -16c1 50 1 101 1 151c0 24 -31 31 -42 51c-4 8 -5 19 -5 30v11
c0 19 -2 36 -23 36h-169c-38 0 -15 -52 -29 -77c-11 -20 -44 -26 -44 -51h-103c1 53 76 46 106 80c32 36 12 121 71 121h168c59 0 38 -85 69 -121c29 -34 105 -27 104 -80zM198 792c25 0 19 -35 34 -50s50 -9 50 -34s-36 -19 -51 -34s-9 -50 -34 -50s-18 35 -33 50
s-51 9 -51 34s36 19 51 34s9 50 34 50zM449 792c25 0 18 -35 33 -50s51 -9 51 -34s-36 -19 -51 -34s-10 -50 -35 -50s-18 35 -33 50s-50 9 -50 34s36 19 51 34s9 50 34 50zM402 267h-168c-22 0 -17 -30 -30 -43s-43 -8 -43 -29l-1 -89c0 -21 31 -16 43 -29s6 -44 28 -44h169
c22 0 16 31 29 44s43 7 44 28v90c0 21 -30 16 -42 29s-7 43 -29 43z" />
    <glyph glyph-name="abreve" unicode="&#x103;" horiz-adv-x="658" 
d="M574 0h-103l1 64c-9 -4 -18 -10 -24 -17c-22 -26 -6 -87 -49 -87h-169c-44 0 -40 62 -69 87c-31 26 -105 8 -104 59l1 89c1 51 74 32 106 58c30 25 26 87 70 87h169c43 0 26 -60 47 -87c6 -7 15 -12 24 -16c1 50 1 101 1 151c0 24 -31 31 -42 51c-4 8 -5 19 -5 30v11
c0 19 -2 36 -23 36h-169c-38 0 -15 -52 -29 -77c-11 -20 -44 -26 -44 -51h-103c1 53 76 46 106 80c32 36 12 121 71 121h168c59 0 38 -85 69 -121c29 -34 105 -27 104 -80zM521 839v-57c0 -40 -57 -25 -82 -45c-23 -19 -21 -67 -55 -67h-123c-34 0 -31 48 -54 67
c-24 20 -80 5 -80 45v57h83l-1 -57c0 -16 22 -11 31 -19s7 -28 21 -28h124c14 0 13 20 22 28c10 8 31 3 31 19l1 57h82zM402 267h-168c-22 0 -17 -30 -30 -43s-43 -8 -43 -29l-1 -89c0 -21 31 -16 43 -29s6 -44 28 -44h169c22 0 16 31 29 44s43 7 44 28v90
c0 21 -30 16 -42 29s-7 43 -29 43z" />
    <glyph glyph-name="Ntilde" unicode="&#xd1;" horiz-adv-x="875" 
d="M98 0l9 900h7l563 -670l6 670h103l-9 -900h-7l-562 670l-7 -670h-103zM330 972h-82c0 40 57 28 81 50c23 22 17 76 55 76c46 0 78 -48 124 -48c18 0 12 26 22 37c9 10 31 8 31 24h82c0 -40 -57 -28 -81 -50c-23 -22 -16 -76 -54 -76c-46 0 -79 48 -125 48
c-18 0 -11 -26 -21 -37c-9 -10 -32 -8 -32 -24z" />
    <glyph glyph-name="Aring" unicode="&#xc5;" horiz-adv-x="777" 
d="M14 0l380 900h7l362 -900h-111l-59 146h-437l-61 -146h-81zM564 219l-184 457l-193 -457h377zM430 1123h-65c-12 0 -6 -16 -11 -24c-5 -7 -17 -8 -17 -17v-49c0 -9 12 -10 16 -17c5 -8 -1 -24 11 -24h64c12 0 6 16 11 24c5 7 17 8 17 17l1 49c0 9 -13 10 -17 17
c-5 8 2 24 -10 24zM430 1172c27 0 22 -39 38 -54c17 -16 57 -8 57 -36v-49c0 -28 -41 -20 -58 -36c-17 -15 -12 -54 -39 -54h-65c-27 0 -22 39 -38 54c-17 16 -57 8 -57 36l1 49c0 28 41 20 58 36c17 15 12 54 39 54h64z" />
    <glyph glyph-name="aacute" unicode="&#xe1;" horiz-adv-x="658" 
d="M574 0h-103l1 64c-9 -4 -18 -10 -24 -17c-22 -26 -6 -87 -49 -87h-169c-44 0 -40 62 -69 87c-31 26 -105 8 -104 59l1 89c1 51 74 32 106 58c30 25 26 87 70 87h169c43 0 26 -60 47 -87c6 -7 15 -12 24 -16c1 50 1 101 1 151c0 24 -31 31 -42 51c-4 8 -5 19 -5 30v11
c0 19 -2 36 -23 36h-169c-38 0 -15 -52 -29 -77c-11 -20 -44 -26 -44 -51h-103c1 53 76 46 106 80c32 36 12 121 71 121h168c59 0 38 -85 69 -121c29 -34 105 -27 104 -80zM375 837h128l-154 -180h-95zM402 267h-168c-22 0 -17 -30 -30 -43s-43 -8 -43 -29l-1 -89
c0 -21 31 -16 43 -29s6 -44 28 -44h169c22 0 16 31 29 44s43 7 44 28v90c0 21 -30 16 -42 29s-7 43 -29 43z" />
    <glyph glyph-name="breve" unicode="&#x2d8;" horiz-adv-x="294" 
d="M353 902l-1 -58c0 -40 -56 -24 -81 -44c-23 -19 -21 -67 -55 -67h-124c-34 0 -30 48 -53 67c-24 20 -81 4 -81 44l1 58h82l-1 -58c0 -16 23 -10 32 -18s7 -29 21 -29h123c14 0 13 21 22 29c10 8 32 2 32 18v58h83z" />
    <glyph glyph-name="plus" unicode="+" horiz-adv-x="686" 
d="M297 549h103l-2 -238h236l-1 -73h-236l-2 -238h-103l2 238h-236l1 73h236z" />
    <glyph glyph-name="edieresis" unicode="&#xeb;" horiz-adv-x="693" 
d="M646 116c-1 -56 -80 -34 -115 -62c-32 -26 -30 -94 -78 -94h-206c-65 0 -41 94 -75 134c-32 38 -115 31 -114 89l2 183c1 58 82 51 115 89c35 40 13 134 78 134h207c65 0 41 -94 75 -134c32 -38 114 -31 113 -89c0 -43 -1 -85 -1 -128h-486v-55c0 -30 38 -36 52 -60
c17 -29 -10 -90 34 -90h207c25 0 21 36 36 50c16 15 53 7 53 33h103zM234 792c25 0 18 -35 33 -50s50 -9 50 -34s-36 -19 -51 -34s-9 -50 -34 -50s-18 35 -33 50s-51 9 -51 34s36 19 51 34s10 50 35 50zM484 792c25 0 18 -35 33 -50s51 -9 51 -34s-36 -19 -51 -34
s-9 -50 -34 -50s-19 35 -34 50s-50 9 -50 34s36 19 51 34s9 50 34 50zM545 366c0 30 -38 36 -52 60c-17 29 10 90 -34 90h-207c-44 0 -19 -61 -36 -90c-14 -24 -53 -30 -53 -60l-1 -55h383v55z" />
    <glyph glyph-name="zdotaccent" unicode="&#x17c;" horiz-adv-x="518" 
d="M39 476l1 73h450l-1 -7l-285 -469h281l-1 -73h-450v7l285 469h-280zM268 792c25 0 18 -35 33 -50s50 -9 50 -34s-36 -19 -51 -34s-9 -50 -34 -50s-18 35 -33 50s-51 9 -51 34s36 19 51 34s10 50 35 50z" />
    <glyph glyph-name="ydieresis" unicode="&#xff;" horiz-adv-x="588" 
d="M13 549h113l183 -411l191 411h86l-562 -1209h-86l313 674zM177 792c25 0 19 -35 34 -50s50 -9 50 -34s-36 -19 -51 -34s-9 -50 -34 -50s-19 35 -34 50s-50 9 -50 34s36 19 51 34s9 50 34 50zM428 792c25 0 18 -35 33 -50s50 -9 50 -34s-35 -19 -50 -34s-10 -50 -35 -50
s-18 35 -33 50s-50 9 -50 34s36 19 51 34s9 50 34 50z" />
    <glyph glyph-name="Agrave" unicode="&#xc0;" horiz-adv-x="777" 
d="M14 0l380 900h7l362 -900h-111l-59 146h-437l-61 -146h-81zM219 1147h128l117 -180h-95zM564 219l-184 457l-193 -457h377z" />
    <glyph glyph-name="Uhungarumlaut" unicode="&#x170;" horiz-adv-x="832" 
d="M746 900l-7 -722c-1 -61 -87 -49 -123 -87c-37 -39 -19 -131 -83 -131h-236c-64 0 -44 92 -80 131c-35 38 -122 26 -121 87l7 722h103l-7 -722c0 -32 44 -34 60 -58c19 -27 -3 -87 39 -87h236c42 0 22 60 41 87c17 24 61 26 61 58l7 722h103zM251 967l111 180h125
l-143 -180h-93zM571 1147h125l-143 -180h-93z" />
    <glyph glyph-name="p" unicode="p" horiz-adv-x="714" 
d="M78 -660l12 1209h103l-2 -124c13 9 26 18 33 30c26 43 -11 134 54 134h199c65 0 40 -94 74 -134c31 -38 112 -32 111 -89l-1 -183c-1 -57 -82 -51 -114 -89c-34 -40 -11 -134 -76 -134h-199c-65 0 -27 91 -52 134c-7 12 -20 21 -32 30l-7 -784h-103zM476 516h-199
c-44 0 -18 -61 -35 -90c-13 -23 -50 -30 -51 -59l-2 -184c0 -29 37 -37 50 -60c6 -10 6 -24 6 -38v-8c0 -23 1 -44 27 -44h199c44 0 18 61 35 90c14 23 52 31 52 60l1 183c0 29 -37 37 -50 60c-6 10 -6 24 -6 38v8c0 23 -1 44 -27 44z" />
    <glyph glyph-name="o" unicode="o" horiz-adv-x="700" 
d="M459 516h-207c-44 0 -19 -61 -36 -90c-14 -24 -53 -30 -53 -60l-2 -183c0 -30 38 -36 52 -60c17 -29 -10 -90 34 -90h207c44 0 19 61 36 90c14 24 54 30 54 60l1 183c0 30 -38 36 -52 60c-17 29 10 90 -34 90zM460 589c65 0 41 -94 75 -134c32 -38 114 -31 113 -89
l-2 -183c-1 -58 -82 -51 -115 -89c-35 -40 -13 -134 -78 -134h-206c-65 0 -41 94 -75 134c-32 38 -115 31 -114 89l2 183c1 58 82 51 115 89c35 40 13 134 78 134h207z" />
    <glyph glyph-name="L" unicode="L" horiz-adv-x="644" 
d="M98 0l9 900h103l-8 -827h401l-1 -73h-504z" />
    <glyph glyph-name="Tcaron" unicode="&#x164;" horiz-adv-x="644" 
d="M23 827l1 73h615l-1 -73h-256l-8 -827h-103l8 827h-256zM414 1147h93l-114 -180h-127l-111 180h94l81 -102z" />
    <glyph glyph-name="Uacute" unicode="&#xda;" horiz-adv-x="832" 
d="M746 900l-7 -722c-1 -61 -87 -49 -123 -87c-37 -39 -19 -131 -83 -131h-236c-64 0 -44 92 -80 131c-35 38 -122 26 -121 87l7 722h103l-7 -722c0 -32 44 -34 60 -58c19 -27 -3 -87 39 -87h236c42 0 22 60 41 87c17 24 61 26 61 58l7 722h103zM475 1147h129l-155 -180h-95
z" />
    <glyph glyph-name="oslash" unicode="&#xf8;" horiz-adv-x="700" 
d="M459 516h-207c-44 0 -19 -61 -36 -90c-14 -24 -53 -30 -53 -60l-2 -183c0 -12 7 -21 15 -28l310 327c-1 19 -5 34 -27 34zM460 589c42 0 47 -39 54 -77c12 12 23 25 35 37h129l-110 -116c36 -16 80 -24 80 -67l-2 -183c-1 -58 -82 -51 -115 -89
c-35 -40 -13 -134 -78 -134h-206c-42 0 -48 39 -55 77l-35 -37h-129l110 116c-36 16 -80 24 -80 67l2 183c1 58 82 51 115 89c35 40 13 134 78 134h207zM220 67c1 -19 5 -34 27 -34h207c44 0 19 61 36 90c14 24 54 30 54 60l1 183c0 12 -6 21 -14 28z" />
    <glyph glyph-name="n" unicode="n" 
d="M84 0l6 549h103l-1 -84c15 6 30 12 40 23c27 30 10 101 60 101h161c50 0 30 -70 55 -101c24 -29 85 -25 85 -68l-5 -420h-102l4 420c0 20 -25 26 -25 50c0 9 2 20 2 29c0 10 -3 17 -15 17h-161c-29 0 -23 -41 -40 -58s-60 -9 -60 -38l-4 -420h-103z" />
    <glyph glyph-name="backslash" unicode="\" horiz-adv-x="525" 
d="M383 -45l-346 990h113l346 -990h-113z" />
    <glyph glyph-name="R" unicode="R" horiz-adv-x="707" 
d="M98 0l9 900h359c67 0 47 -97 85 -137c37 -39 129 -26 128 -91l-1 -189c-1 -65 -93 -52 -131 -91c-14 -15 -21 -38 -27 -61l181 -331h-121l-134 255h-242l-3 -255h-103zM209 827l-5 -499h256c45 0 25 64 46 93c19 25 69 26 69 62l2 189c0 36 -50 37 -68 62
c-21 29 1 93 -44 93h-256z" />
    <glyph glyph-name="Eacute" unicode="&#xc9;" horiz-adv-x="651" 
d="M98 0l9 900h504v-73h-402l-4 -467h350l-1 -72h-350l-2 -215h401l-1 -73h-504zM410 1147h128l-154 -180h-95z" />
    <glyph glyph-name="tcedilla" unicode="&#x163;" horiz-adv-x="378" 
d="M28 476v73h115l4 431h103l-4 -431h114l-1 -73h-114c-2 -159 -3 -317 -5 -476h-23l-61 -169h83c53 0 26 -75 49 -109c20 -30 76 -32 76 -72l-2 -151c0 -40 -56 -42 -77 -72c-24 -34 2 -109 -51 -109h-104c-8 0 -13 2 -18 5l32 53h90c16 0 20 10 20 22c0 11 -3 26 -3 38
c0 29 29 38 29 63l1 151c0 24 -28 34 -28 62c0 13 4 28 4 40s-4 21 -19 21h-180l82 227h-3l5 476h-114z" />
    <glyph glyph-name="Odieresis" unicode="&#xd6;" horiz-adv-x="980" 
d="M373 1102c25 0 18 -35 33 -50s51 -9 51 -34s-36 -19 -51 -34c-11 -11 -11 -33 -20 -44h222c-9 11 -8 33 -19 44c-15 15 -50 9 -50 34s36 19 51 34s9 50 34 50s18 -35 33 -50s50 -9 50 -34s-36 -19 -51 -34c-11 -11 -11 -33 -20 -44h39c97 0 53 -138 99 -199
c41 -55 151 -54 150 -133l-3 -316c-1 -79 -111 -78 -153 -133c-47 -61 -6 -199 -103 -199h-351c-97 0 -53 138 -99 199c-41 55 -151 54 -150 133l3 316c1 79 111 78 153 133c47 61 6 199 103 199h33c-9 11 -8 33 -19 44c-15 15 -50 9 -50 34s36 19 51 34s9 50 34 50z
M674 867h-351c-76 0 -32 -105 -61 -155c-24 -41 -90 -53 -91 -104l-3 -316c-1 -51 66 -63 89 -104c28 -50 -18 -155 58 -155h351c76 0 32 105 61 155c24 41 90 53 91 104l3 316c1 51 -66 63 -89 104c-28 50 18 155 -58 155z" />
    <glyph glyph-name="six" unicode="6" horiz-adv-x="686" 
d="M646 725h-103c0 29 -38 34 -51 57c-16 27 9 85 -33 85h-200c-42 0 -18 -58 -35 -85c-14 -23 -52 -28 -52 -57l-3 -327c13 8 25 17 33 29c26 40 -8 127 54 127h200c62 0 41 -89 74 -127c32 -36 113 -28 112 -85l-2 -170c-1 -57 -80 -49 -113 -85
c-34 -38 -15 -127 -77 -127h-200c-62 0 -41 89 -74 127c-32 36 -113 28 -112 85l5 553c1 57 82 49 114 86c34 39 14 129 77 129h200c63 0 41 -90 74 -129c32 -37 113 -29 112 -86zM251 33h200c41 0 18 56 35 83c14 22 51 28 51 56l2 170c0 28 -37 34 -50 56
c-16 27 7 83 -34 83h-200c-41 0 -18 -56 -35 -83c-14 -22 -51 -27 -52 -55l-1 -171c0 -28 37 -34 50 -56c16 -27 -7 -83 34 -83z" />
    <glyph glyph-name="Tcedilla" unicode="&#x162;" horiz-adv-x="644" 
d="M23 827l1 73h615l-1 -73h-256l-8 -827h-24l-61 -169h83c53 0 27 -75 50 -109c20 -30 75 -32 75 -72l-1 -151c0 -40 -56 -42 -77 -72c-24 -34 1 -109 -52 -109h-103c-8 0 -14 2 -19 5l33 53h90c16 0 19 10 19 22c0 11 -3 26 -3 38c0 29 29 38 29 63l2 151
c0 24 -28 34 -28 62c0 13 4 28 4 40s-4 21 -19 21h-181l83 227h-3l8 827h-256z" />
    <glyph glyph-name="icircumflex" unicode="&#xee;" horiz-adv-x="266" 
d="M81 0l6 549h102l-5 -549h-103zM141 759l-84 -102h-93l114 180h127l111 -180h-94z" />
    <glyph glyph-name="Eth" unicode="&#xd0;" horiz-adv-x="938" 
d="M613 0h-459l5 414h-105v72h105l4 414h459c90 0 54 -128 100 -184c42 -52 152 -45 151 -123l-2 -286c-1 -78 -110 -71 -154 -123c-47 -56 -14 -184 -104 -184zM258 73h356c68 0 33 96 62 140c25 38 92 45 92 94l3 286c0 49 -67 56 -91 94c-28 44 9 140 -59 140h-355
l-4 -341h254l-1 -72h-253z" />
    <glyph glyph-name="a" unicode="a" horiz-adv-x="658" 
d="M574 0h-103l1 64c-9 -4 -18 -10 -24 -17c-22 -26 -6 -87 -49 -87h-169c-44 0 -40 62 -69 87c-31 26 -105 8 -104 59l1 89c1 51 74 32 106 58c30 25 26 87 70 87h169c43 0 26 -60 47 -87c6 -7 15 -12 24 -16c1 50 1 101 1 151c0 24 -31 31 -42 51c-4 8 -5 19 -5 30v11
c0 19 -2 36 -23 36h-169c-38 0 -15 -52 -29 -77c-11 -20 -44 -26 -44 -51h-103c1 53 76 46 106 80c32 36 12 121 71 121h168c59 0 38 -85 69 -121c29 -34 105 -27 104 -80zM402 267h-168c-22 0 -17 -30 -30 -43s-43 -8 -43 -29l-1 -89c0 -21 31 -16 43 -29s6 -44 28 -44h169
c22 0 16 31 29 44s43 7 44 28v90c0 21 -30 16 -42 29s-7 43 -29 43z" />
    <glyph glyph-name="scedilla" unicode="&#x15f;" horiz-adv-x="560" 
d="M43 97h103c0 -19 26 -15 37 -26s5 -38 24 -38h146c19 0 15 27 26 38s37 7 37 26l1 77c0 19 -26 15 -37 26s-6 38 -25 38h-145c-42 0 -38 59 -66 82c-30 25 -98 7 -98 55l1 77c0 48 69 30 99 55c28 23 25 82 67 82h146c42 0 37 -59 65 -82c30 -25 99 -7 99 -55h-103
c0 19 -26 15 -37 26s-6 38 -25 38h-146c-19 0 -14 -27 -25 -38s-37 -7 -37 -26l-1 -77c0 -19 26 -15 37 -26s5 -38 24 -38h146c42 0 37 -59 65 -82c30 -25 99 -7 99 -55l-1 -77c0 -48 -69 -30 -99 -55c-28 -23 -25 -82 -67 -82h-59l-47 -129h83c53 0 27 -75 50 -109
c20 -30 75 -32 75 -72l-2 -151c0 -40 -55 -42 -76 -72c-24 -34 1 -109 -52 -109h-104c-8 0 -13 2 -18 5l33 53h90c16 0 19 10 19 22c0 11 -3 26 -3 38c0 29 29 38 29 63l2 151c0 24 -28 34 -28 62c0 13 4 28 4 40s-4 21 -19 21h-181l68 187h-10c-42 0 -37 59 -65 82
c-30 25 -99 7 -99 55z" />
    <glyph glyph-name="nacute" unicode="&#x144;" 
d="M84 0l6 549h103l-1 -84c15 6 30 12 40 23c27 30 10 101 60 101h161c50 0 30 -70 55 -101c24 -29 85 -25 85 -68l-5 -420h-102l4 420c0 20 -25 26 -25 50c0 9 2 20 2 29c0 10 -3 17 -15 17h-161c-29 0 -23 -41 -40 -58s-60 -9 -60 -38l-4 -420h-103zM396 837h128
l-154 -180h-95z" />
    <glyph glyph-name="cwm" horiz-adv-x="0" 
 />
    <glyph glyph-name="Ccedilla" unicode="&#xc7;" horiz-adv-x="945" 
d="M921 292c-1 -79 -111 -78 -153 -133c-47 -61 -6 -199 -103 -199h-161l-47 -129h83c53 0 27 -75 50 -109c20 -30 75 -32 75 -72l-2 -151c0 -40 -55 -42 -76 -72c-24 -34 1 -109 -52 -109h-104c-8 0 -13 2 -18 5l32 53h91c16 0 19 10 19 22c0 11 -3 26 -3 38
c0 29 29 38 29 63l1 151c0 24 -27 34 -27 62c0 13 4 28 4 40s-4 21 -19 21h-181l68 187h-113c-97 0 -53 138 -99 199c-41 55 -151 54 -150 133l3 316c1 79 111 78 153 133c47 61 6 199 103 199h351c97 0 53 -138 99 -199c41 -55 151 -54 150 -133h-103c1 51 -66 63 -89 104
c-28 50 18 155 -58 155h-351c-76 0 -32 -105 -61 -155c-24 -41 -90 -53 -91 -104l-3 -316c-1 -51 66 -63 89 -104c28 -50 -18 -155 58 -155h351c76 0 32 105 61 155c24 41 90 53 91 104h103z" />
    <glyph glyph-name="macron" unicode="&#xaf;" horiz-adv-x="294" 
d="M-15 755l1 65h338l-1 -65h-338z" />
    <glyph glyph-name="greater" unicode="&#x3e;" horiz-adv-x="686" 
d="M500 274l-439 183l1 111l572 -238l-1 -111l-577 -238l1 111z" />
    <glyph glyph-name="lslash" unicode="&#x142;" horiz-adv-x="322" 
d="M115 557l4 423h103l-4 -345l79 59l-1 -114l-79 -59l-5 -521h-103l5 443l-79 -59l1 114z" />
    <glyph glyph-name="Oacute" unicode="&#xd3;" horiz-adv-x="980" 
d="M550 1147h128l-154 -180h-95zM674 867h-351c-76 0 -32 -105 -61 -155c-24 -41 -90 -53 -91 -104l-3 -316c-1 -51 66 -63 89 -104c28 -50 -18 -155 58 -155h351c76 0 32 105 61 155c24 41 90 53 91 104l3 316c1 51 -66 63 -89 104c-28 50 18 155 -58 155zM675 940
c97 0 53 -138 99 -199c41 -55 151 -54 150 -133l-3 -316c-1 -79 -111 -78 -153 -133c-47 -61 -6 -199 -103 -199h-351c-97 0 -53 138 -99 199c-41 55 -151 54 -150 133l3 316c1 79 111 78 153 133c47 61 6 199 103 199h351z" />
    <glyph glyph-name="y" unicode="y" horiz-adv-x="588" 
d="M13 549h113l183 -411l191 411h86l-562 -1209h-86l313 674z" />
    <glyph glyph-name="Uring" unicode="&#x16e;" horiz-adv-x="832" 
d="M746 900l-7 -722c-1 -61 -87 -49 -123 -87c-37 -39 -19 -131 -83 -131h-236c-64 0 -44 92 -80 131c-35 38 -122 26 -121 87l7 722h103l-7 -722c0 -32 44 -34 60 -58c19 -27 -3 -87 39 -87h236c42 0 22 60 41 87c17 24 61 26 61 58l7 722h103zM457 1123h-65
c-12 0 -6 -16 -11 -24c-5 -7 -17 -8 -17 -17v-49c0 -9 12 -10 16 -17c5 -8 -1 -24 11 -24h64c12 0 7 16 12 24c5 7 16 8 16 17l1 49c0 9 -13 10 -17 17c-5 8 2 24 -10 24zM457 1172c27 0 22 -39 38 -54c17 -16 57 -8 57 -36v-49c0 -28 -41 -20 -58 -36
c-17 -15 -12 -54 -39 -54h-65c-27 0 -22 39 -38 54c-17 16 -57 8 -57 36l1 49c0 28 41 20 58 36c17 15 12 54 39 54h64z" />
    <glyph glyph-name="Eogonek" unicode="&#x118;" horiz-adv-x="651" 
d="M600 -564c0 29 29 38 29 63h82c0 -40 -55 -42 -76 -72c-24 -34 1 -109 -52 -109h-104c-53 0 -26 75 -49 109c-20 30 -75 32 -75 72l1 151c1 74 60 130 90 196l71 154h-419l9 900h504v-73h-402l-4 -467h350l-1 -72h-350l-2 -215h401l-1 -73h-3l-98 -213
c-21 -47 -61 -85 -62 -137l-2 -151c0 -24 28 -34 28 -62c0 -13 -4 -28 -4 -40s4 -21 19 -21h104c16 0 19 10 19 22c0 11 -3 26 -3 38z" />
    <glyph glyph-name="Egrave" unicode="&#xc8;" horiz-adv-x="651" 
d="M98 0l9 900h504v-73h-402l-4 -467h350l-1 -72h-350l-2 -215h401l-1 -73h-504zM180 1147h129l117 -180h-95z" />
    <glyph glyph-name="Nacute" unicode="&#x143;" horiz-adv-x="875" 
d="M98 0l9 900h7l563 -670l6 670h103l-9 -900h-7l-562 670l-7 -670h-103zM497 1147h129l-154 -180h-95z" />
    <glyph glyph-name="cedilla" unicode="&#xb8;" horiz-adv-x="280" 
d="M101 29h77l-71 -198h83c53 0 26 -75 49 -109c20 -30 75 -32 75 -72l-1 -151c0 -40 -56 -42 -77 -72c-24 -34 2 -109 -51 -109h-104c-8 0 -14 2 -19 5l33 53h90c16 0 20 10 20 22c0 11 -4 26 -4 38c0 29 30 38 30 63l1 151c0 24 -28 34 -28 62c0 13 4 28 4 40
s-4 21 -19 21h-181z" />
    <glyph glyph-name="W" unicode="W" horiz-adv-x="1092" 
d="M23 900h110l248 -661l130 331l-123 330h110l70 -187l73 187h82l-116 -293l138 -368l261 661h81l-355 -900h-7l-174 465l-184 -465h-7z" />
    <glyph glyph-name="tcaron" unicode="&#x165;" horiz-adv-x="378" 
d="M28 476v73h115l4 431h103l-4 -431h114l-1 -73h-114c-2 -159 -3 -317 -5 -476h-103l5 476h-114zM489 980h107l-133 -292h-80z" />
    <glyph glyph-name="comma" unicode="," horiz-adv-x="329" 
d="M123 110h115l-138 -275h-85z" />
    <glyph glyph-name="asciitilde" unicode="~" horiz-adv-x="686" 
d="M161 192h-103c0 48 68 34 97 61c28 26 21 90 66 90c88 0 163 -64 251 -64c23 0 13 33 24 47c10 13 35 13 35 31h103c0 -48 -68 -34 -97 -61c-28 -26 -20 -90 -65 -90c-88 0 -164 64 -252 64c-23 0 -13 -33 -24 -47c-10 -13 -35 -13 -35 -31z" />
    <glyph glyph-name="eng" unicode="&#x14b;" 
d="M84 0l6 549h103l-1 -84c15 6 30 12 40 23c27 30 10 101 60 101h161c50 0 30 -70 55 -101c24 -29 85 -25 85 -68c-3 -284 -6 -569 -9 -853c0 -49 -62 -66 -84 -107c-8 -16 -10 -37 -10 -58c0 -11 1 -21 1 -31c0 -38 -5 -71 -48 -71h-83c-20 0 -32 7 -38 19l96 54h26
c22 0 28 11 28 26c0 22 -14 54 -14 80c0 33 23 57 23 88c3 284 6 569 9 853c0 20 -25 26 -25 50c0 9 2 20 2 29c0 10 -3 17 -15 17h-161c-29 0 -23 -41 -40 -58s-60 -9 -60 -38l-4 -420h-103z" />
    <glyph glyph-name="quotesinglbase" unicode="&#x201a;" horiz-adv-x="357" 
d="M181 112h108l-134 -292h-79z" />
    <glyph glyph-name="ugrave" unicode="&#xf9;" 
d="M586 549l-6 -549h-103l1 80c-9 -5 -16 -11 -22 -19c-22 -32 1 -101 -48 -101h-161c-50 0 -37 71 -67 101s-104 17 -103 68l5 420h103l-5 -420c0 -22 30 -22 41 -38c13 -18 -1 -58 27 -58h161c28 0 15 40 28 58c11 16 42 16 42 38c1 140 3 280 4 420h103zM158 837h129
l117 -180h-95z" />
    <glyph glyph-name="O" unicode="O" horiz-adv-x="980" 
d="M674 867h-351c-76 0 -32 -105 -61 -155c-24 -41 -90 -53 -91 -104l-3 -316c-1 -51 66 -63 89 -104c28 -50 -18 -155 58 -155h351c76 0 32 105 61 155c24 41 90 53 91 104l3 316c1 51 -66 63 -89 104c-28 50 18 155 -58 155zM675 940c97 0 53 -138 99 -199
c41 -55 151 -54 150 -133l-3 -316c-1 -79 -111 -78 -153 -133c-47 -61 -6 -199 -103 -199h-351c-97 0 -53 138 -99 199c-41 55 -151 54 -150 133l3 316c1 79 111 78 153 133c47 61 6 199 103 199h351z" />
    <glyph glyph-name="four" unicode="4" horiz-adv-x="693" 
d="M533 234c-1 -78 -1 -156 -2 -234h-103l2 234h-371v6l474 660h7l-6 -594h105l-1 -72h-105zM431 306l3 287l-206 -287h203z" />
    <glyph glyph-name="ucircumflex" unicode="&#xfb;" 
d="M586 549l-6 -549h-103l1 80c-9 -5 -16 -11 -22 -19c-22 -32 1 -101 -48 -101h-161c-50 0 -37 71 -67 101s-104 17 -103 68l5 420h103l-5 -420c0 -22 30 -22 41 -38c13 -18 -1 -58 27 -58h161c28 0 15 40 28 58c11 16 42 16 42 38c1 140 3 280 4 420h103zM337 759
l-84 -102h-94l115 180h126l112 -180h-94z" />
    <glyph glyph-name="seven" unicode="7" 
d="M64 827l1 73h538v-7l-345 -893h-111l320 827h-403z" />
    <glyph glyph-name="uacute" unicode="&#xfa;" 
d="M586 549l-6 -549h-103l1 80c-9 -5 -16 -11 -22 -19c-22 -32 1 -101 -48 -101h-161c-50 0 -37 71 -67 101s-104 17 -103 68l5 420h103l-5 -420c0 -22 30 -22 41 -38c13 -18 -1 -58 27 -58h161c28 0 15 40 28 58c11 16 42 16 42 38c1 140 3 280 4 420h103zM388 837h128
l-154 -180h-95z" />
    <glyph glyph-name="m" unicode="m" horiz-adv-x="1015" 
d="M84 0l6 549h103l-1 -84c13 6 26 13 35 23c25 31 6 101 56 101h147c50 0 29 -70 54 -101c14 -17 40 -22 59 -33c19 11 45 16 59 33c25 31 6 101 56 101h147c50 0 30 -70 55 -101c23 -28 82 -26 82 -68l-4 -420h-103l4 420c0 19 -22 27 -22 49c0 10 3 22 3 31s-3 16 -15 16
h-147c-28 0 -21 -41 -37 -58s-54 -11 -54 -38l-5 -420h-102l4 420c0 19 -23 27 -23 49c0 10 3 22 3 31s-3 16 -15 16h-147c-28 0 -20 -41 -36 -58s-55 -11 -55 -38c-1 -140 -3 -280 -4 -420h-103z" />
    <glyph glyph-name="u" unicode="u" 
d="M586 549l-6 -549h-103l1 80c-9 -5 -16 -11 -22 -19c-22 -32 1 -101 -48 -101h-161c-50 0 -37 71 -67 101s-104 17 -103 68l5 420h103l-5 -420c0 -22 30 -22 41 -38c13 -18 -1 -58 27 -58h161c28 0 15 40 28 58c11 16 42 16 42 38c1 140 3 280 4 420h103z" />
    <glyph glyph-name="grave" unicode="`" horiz-adv-x="280" 
d="M19 900h128l117 -180h-95z" />
    <glyph glyph-name="b" unicode="b" horiz-adv-x="721" 
d="M90 0l10 980h103l-6 -555c13 9 26 18 33 30c26 43 -11 134 54 134h199c65 0 40 -94 74 -134c31 -38 112 -32 111 -89l-1 -183c-1 -57 -82 -51 -114 -89c-34 -40 -11 -134 -76 -134h-199c-65 0 -27 91 -52 134c-7 12 -20 21 -32 30l-1 -124h-103zM482 516h-199
c-44 0 -18 -61 -35 -90c-14 -23 -51 -31 -51 -60c-1 -61 -1 -123 -2 -184c0 -29 37 -36 50 -59c6 -10 6 -24 6 -38v-8c0 -23 1 -44 27 -44h199c44 0 18 61 35 90c14 23 52 31 52 60l1 183c0 29 -37 37 -50 60c-6 10 -6 24 -6 38v8c0 23 -1 44 -27 44z" />
    <glyph glyph-name="Abreve" unicode="&#x102;" horiz-adv-x="777" 
d="M14 0l380 900h7l362 -900h-111l-59 146h-437l-61 -146h-81zM595 1149l-1 -57c0 -40 -57 -25 -82 -45c-23 -19 -20 -67 -54 -67h-124c-34 0 -30 48 -53 67c-24 20 -81 5 -81 45l1 57h82l-1 -57c0 -16 23 -11 32 -19s7 -28 21 -28h123c14 0 13 20 22 28c10 8 32 3 32 19v57
h83zM564 219l-184 457l-193 -457h377z" />
    <glyph glyph-name="perthousandzero" horiz-adv-x="483" 
d="M147 165c0 -21 29 -25 29 -52c0 -7 -1 -14 -1 -20c0 -11 2 -20 15 -20h105c14 0 16 10 16 22v16c0 6 0 12 2 17c7 14 28 21 28 37l1 112c0 16 -20 23 -27 37c-2 4 -2 9 -2 15v20c0 11 -2 19 -15 19h-105c-14 0 -16 -9 -16 -21c0 -5 1 -11 1 -16c0 -6 -1 -12 -3 -17
c-7 -14 -27 -21 -27 -37zM299 441c49 0 32 -69 58 -98c25 -28 88 -21 88 -66l-1 -112c0 -45 -64 -38 -90 -66c-27 -29 -11 -99 -60 -99h-104c-49 0 -32 70 -58 99c-25 28 -88 21 -88 66l1 112c0 45 63 38 89 66c27 29 11 98 60 98h105z" />
    <glyph glyph-name="atilde" unicode="&#xe3;" horiz-adv-x="658" 
d="M574 0h-103l1 64c-9 -4 -18 -10 -24 -17c-22 -26 -6 -87 -49 -87h-169c-44 0 -40 62 -69 87c-31 26 -105 8 -104 59l1 89c1 51 74 32 106 58c30 25 26 87 70 87h169c43 0 26 -60 47 -87c6 -7 15 -12 24 -16c1 50 1 101 1 151c0 24 -31 31 -42 51c-4 8 -5 19 -5 30v11
c0 19 -2 36 -23 36h-169c-38 0 -15 -52 -29 -77c-11 -20 -44 -26 -44 -51h-103c1 53 76 46 106 80c32 36 12 121 71 121h168c59 0 38 -85 69 -121c29 -34 105 -27 104 -80zM208 662h-83c0 40 58 28 82 50c23 22 16 76 54 76c46 0 79 -48 125 -48c18 0 11 26 21 37
c9 10 32 8 32 24h82c0 -40 -57 -28 -81 -50c-23 -22 -17 -76 -55 -76c-46 0 -79 48 -125 48c-18 0 -11 -26 -21 -37c-9 -10 -31 -8 -31 -24zM402 267h-168c-22 0 -17 -30 -30 -43s-43 -8 -43 -29l-1 -89c0 -21 31 -16 43 -29s6 -44 28 -44h169c22 0 16 31 29 44s43 7 44 28
v90c0 21 -30 16 -42 29s-7 43 -29 43z" />
    <glyph glyph-name="e" unicode="e" horiz-adv-x="693" 
d="M646 116c-1 -56 -80 -34 -115 -62c-32 -26 -30 -94 -78 -94h-206c-65 0 -41 94 -75 134c-32 38 -115 31 -114 89l2 183c1 58 82 51 115 89c35 40 13 134 78 134h207c65 0 41 -94 75 -134c32 -38 114 -31 113 -89c0 -43 -1 -85 -1 -128h-486v-55c0 -30 38 -36 52 -60
c17 -29 -10 -90 34 -90h207c25 0 21 36 36 50c16 15 53 7 53 33h103zM545 366c0 30 -38 36 -52 60c-17 29 10 90 -34 90h-207c-44 0 -19 -61 -36 -90c-14 -24 -53 -30 -53 -60l-1 -55h383v55z" />
    <glyph glyph-name="caron" unicode="&#x2c7;" horiz-adv-x="294" 
d="M238 900h94l-115 -180h-126l-112 180h94l82 -102z" />
    <glyph glyph-name="Icircumflex" unicode="&#xce;" horiz-adv-x="327" 
d="M112 0l9 900h103l-9 -900h-103zM172 1070l-84 -103h-93l115 180h126l111 -180h-94z" />
    <glyph glyph-name="P" unicode="P" horiz-adv-x="714" 
d="M98 0l9 900h359c69 0 47 -99 85 -141c37 -41 129 -29 128 -94l-2 -199c-1 -65 -92 -53 -130 -94c-39 -42 -19 -141 -88 -141h-255l-3 -231h-103zM209 827l-5 -523h256c47 0 24 67 46 97c19 26 68 29 68 65l2 199c0 36 -49 39 -67 65c-21 30 3 97 -44 97h-256z" />
    <glyph glyph-name="Y" unicode="Y" horiz-adv-x="728" 
d="M17 900h113l253 -551l264 551h83l-312 -651l-2 -249h-103l2 249z" />
    <glyph glyph-name="Ograve" unicode="&#xd2;" horiz-adv-x="980" 
d="M320 1147h128l118 -180h-96zM674 867h-351c-76 0 -32 -105 -61 -155c-24 -41 -90 -53 -91 -104l-3 -316c-1 -51 66 -63 89 -104c28 -50 -18 -155 58 -155h351c76 0 32 105 61 155c24 41 90 53 91 104l3 316c1 51 -66 63 -89 104c-28 50 18 155 -58 155zM675 940
c97 0 53 -138 99 -199c41 -55 151 -54 150 -133l-3 -316c-1 -79 -111 -78 -153 -133c-47 -61 -6 -199 -103 -199h-351c-97 0 -53 138 -99 199c-41 55 -151 54 -150 133l3 316c1 79 111 78 153 133c47 61 6 199 103 199h351z" />
    <glyph glyph-name="K" unicode="K" horiz-adv-x="742" 
d="M107 900h103l-6 -576l426 576h92l-285 -386l276 -514h-121l-226 419l-163 -222c-1 -66 -1 -131 -2 -197h-103z" />
    <glyph glyph-name="circumflex" unicode="&#x2c6;" horiz-adv-x="294" 
d="M155 822l-84 -102h-93l114 180h127l111 -180h-94z" />
    <glyph glyph-name="braceleft" unicode="{" horiz-adv-x="427" 
d="M64 183c30 0 22 44 39 62s58 11 58 40l5 467c1 82 119 58 166 106c30 31 28 90 44 130l-120 -1476c-1 -51 73 -44 100 -78c30 -38 -2 -127 61 -127h23l-81 -31c-15 40 -13 99 -42 130c-46 48 -165 24 -164 106l5 467c0 29 -41 22 -57 40c-17 18 -8 62 -38 62zM114 132
c7 -25 11 -54 28 -71c34 -36 120 -23 119 -82l3 306c-1 -59 -85 -46 -120 -82c-17 -17 -22 -46 -30 -71z" />
    <glyph glyph-name="Yacute" unicode="&#xdd;" horiz-adv-x="728" 
d="M17 900h113l253 -551l264 551h83l-312 -651l-2 -249h-103l2 249zM424 1147h128l-154 -180h-95z" />
    <glyph glyph-name="asciicircum" unicode="^" horiz-adv-x="756" 
d="M386 786l-217 -426h-115l276 540h115l265 -540h-114z" />
    <glyph glyph-name="S" unicode="S" horiz-adv-x="728" 
d="M58 151h103c0 -29 40 -27 55 -47c17 -22 1 -71 36 -71h219c35 0 21 49 38 71c16 20 56 18 56 47l2 145c0 29 -41 27 -56 47c-17 22 -1 71 -36 71h-219c-57 0 -43 81 -77 114c-34 34 -118 18 -117 76l2 145c1 58 83 42 118 76c34 33 23 115 80 115h218
c57 0 43 -82 77 -115c34 -34 118 -18 117 -76h-103c0 29 -40 27 -55 47c-17 22 -2 71 -37 71h-218c-35 0 -21 -49 -38 -71c-16 -20 -56 -18 -56 -47l-2 -145c0 -29 40 -27 55 -47c17 -22 2 -71 37 -71h219c57 0 43 -81 77 -114c34 -34 118 -18 117 -76l-2 -145
c-1 -58 -83 -42 -118 -76c-34 -33 -23 -115 -80 -115h-218c-57 0 -44 82 -78 115c-34 34 -117 18 -116 76z" />
    <glyph glyph-name="guilsinglleft" unicode="&#x2039;" horiz-adv-x="385" 
d="M179 274l144 -274h-114l-144 274l149 275h115z" />
    <glyph glyph-name="c" unicode="c" horiz-adv-x="685" 
d="M644 183c-1 -58 -82 -51 -115 -89c-35 -40 -12 -134 -77 -134h-206c-65 0 -41 94 -75 134c-32 38 -114 31 -113 89l2 183c1 58 82 51 115 89c35 40 12 134 77 134h206c65 0 41 -94 75 -134c32 -38 114 -31 113 -89h-103c0 30 -38 36 -52 60c-17 29 10 90 -34 90h-205
c-44 0 -19 -61 -36 -90c-14 -24 -53 -30 -53 -60l-2 -183c0 -30 38 -36 52 -60c17 -29 -10 -90 34 -90h205c44 0 19 61 36 90c14 24 54 30 54 60h102z" />
    <glyph glyph-name="Ccaron" unicode="&#x10c;" horiz-adv-x="945" 
d="M921 292c-1 -79 -111 -78 -153 -133c-47 -61 -6 -199 -103 -199h-351c-97 0 -53 138 -99 199c-41 55 -151 54 -150 133l3 316c1 79 111 78 153 133c47 61 6 199 103 199h351c97 0 53 -138 99 -199c41 -55 151 -54 150 -133h-103c1 51 -66 63 -89 104
c-28 50 18 155 -58 155h-351c-76 0 -32 -105 -61 -155c-24 -41 -90 -53 -91 -104l-3 -316c-1 -51 66 -63 89 -104c28 -50 -18 -155 58 -155h351c76 0 32 105 61 155c24 41 90 53 91 104h103zM582 1147h93l-115 -180h-126l-111 180h93l82 -102z" />
    <glyph glyph-name="Q" unicode="Q" horiz-adv-x="980" 
d="M674 867h-351c-76 0 -32 -105 -61 -155c-24 -41 -90 -53 -91 -104l-3 -316c-1 -51 66 -63 89 -104c28 -50 -18 -155 58 -155h351c37 0 46 25 48 57l-178 186h133l70 -73c29 29 79 45 79 89l3 316c1 51 -66 63 -89 104c-28 50 18 155 -58 155zM675 940
c97 0 53 -138 99 -199c41 -55 151 -54 150 -133l-3 -316c-1 -75 -101 -78 -147 -126l159 -166h-133l-61 63c-8 -53 -15 -103 -74 -103h-351c-97 0 -53 138 -99 199c-41 55 -151 54 -150 133l3 316c1 79 111 78 153 133c47 61 6 199 103 199h351z" />
    <glyph glyph-name="t" unicode="t" horiz-adv-x="378" 
d="M28 476v73h115l4 431h103l-4 -431h114l-1 -73h-114c-2 -159 -3 -317 -5 -476h-103l5 476h-114z" />
    <glyph glyph-name="hungarumlaut" unicode="&#x2dd;" horiz-adv-x="294" 
d="M-18 720l111 180h125l-143 -180h-93zM302 900h125l-143 -180h-93z" />
    <glyph glyph-name="parenleft" unicode="(" horiz-adv-x="385" 
d="M293 -764c-57 10 -71 52 -71 107c0 53 13 119 13 176c0 28 -3 55 -13 77c-38 86 -163 122 -162 222l7 628c1 100 126 136 166 222c11 24 15 54 15 85c0 53 -10 111 -10 161c0 58 13 104 72 114l12 -72c-52 -5 -67 -36 -67 -80c0 -55 23 -127 23 -188
c0 -109 -107 -149 -108 -242l-7 -628c-1 -92 104 -131 104 -237c0 -63 -26 -141 -26 -197c0 -42 14 -71 64 -76z" />
    <glyph glyph-name="Zdotaccent" unicode="&#x17b;" horiz-adv-x="714" 
d="M42 827l1 73h647v-7l-494 -820h486l-1 -73h-647v7l493 820h-485zM366 1102c25 0 18 -35 33 -50s50 -9 50 -34s-35 -19 -50 -34s-10 -50 -35 -50s-18 35 -33 50s-50 9 -50 34s36 19 51 34s9 50 34 50z" />
    <glyph glyph-name="Iacute" unicode="&#xcd;" horiz-adv-x="327" 
d="M112 0l9 900h103l-9 -900h-103zM223 1147h129l-155 -180h-95z" />
    <glyph glyph-name="egrave" unicode="&#xe8;" horiz-adv-x="693" 
d="M646 116c-1 -56 -80 -34 -115 -62c-32 -26 -30 -94 -78 -94h-206c-65 0 -41 94 -75 134c-32 38 -115 31 -114 89l2 183c1 58 82 51 115 89c35 40 13 134 78 134h207c65 0 41 -94 75 -134c32 -38 114 -31 113 -89c0 -43 -1 -85 -1 -128h-486v-55c0 -30 38 -36 52 -60
c17 -29 -10 -90 34 -90h207c25 0 21 36 36 50c16 15 53 7 53 33h103zM180 837h129l117 -180h-95zM545 366c0 30 -38 36 -52 60c-17 29 10 90 -34 90h-207c-44 0 -19 -61 -36 -90c-14 -24 -53 -30 -53 -60l-1 -55h383v55z" />
    <glyph glyph-name="ffi" unicode="&#xfb03;" horiz-adv-x="973" 
d="M795 824c0 25 -31 33 -31 63c0 12 3 27 3 38c0 12 -3 22 -19 22h-113c-16 0 -20 -10 -20 -23c0 -11 2 -23 2 -35c0 -31 -32 -39 -32 -65l-2 -275h312l-5 -549h-103l4 476h-209c-2 -159 -3 -317 -5 -476h-103l5 476h-225c-2 -159 -3 -317 -5 -476h-103l5 476h-97v73h97
l4 312c0 40 56 36 78 63c24 29 6 96 53 96h62c47 0 28 -67 51 -96c22 -27 77 -23 77 -63h-103c0 16 -16 24 -16 42c0 10 4 22 4 31c0 8 -3 13 -13 13h-63c-11 0 -13 -6 -13 -14c0 -9 3 -20 3 -30c0 -19 -17 -26 -17 -42c-1 -104 -3 -208 -4 -312h226l2 275c0 47 67 45 92 78
c28 36 5 118 62 118h113c57 0 32 -82 59 -118c25 -33 90 -31 90 -78h-103z" />
    <glyph glyph-name="section" unicode="&#xa7;" 
d="M71 -479h103c0 -26 31 -37 41 -59c3 -6 4 -15 4 -23c0 -12 -2 -25 -2 -36c0 -17 4 -30 24 -30h162c21 0 25 15 25 33c0 10 -1 20 -1 30c0 9 1 19 4 26c11 22 42 33 42 59l1 181c0 26 -30 37 -40 59c-3 6 -4 14 -4 22c0 12 2 25 2 36c0 17 -5 31 -25 31h-161
c-58 0 -37 82 -67 117c-29 33 -103 26 -102 78l1 150c1 52 74 45 104 78c21 23 19 67 32 94c-13 27 -10 70 -30 93c-29 33 -103 26 -102 78l1 181c1 53 75 52 104 89c32 41 5 132 70 132h161c65 0 37 -91 68 -132c28 -37 103 -36 102 -89h-103c0 26 -31 37 -41 59
c-3 6 -4 15 -4 23c0 12 2 25 2 36c0 17 -4 30 -24 30h-162c-21 0 -25 -15 -25 -33c0 -10 1 -20 1 -30c0 -9 -1 -19 -4 -26c-11 -22 -42 -33 -42 -59l-2 -181c0 -26 31 -37 41 -59c3 -6 4 -14 4 -22c0 -12 -2 -25 -2 -36c0 -17 5 -31 25 -31h161c58 0 37 -82 67 -117
c29 -33 103 -26 102 -78l-1 -150c-1 -52 -74 -45 -104 -78c-21 -23 -19 -67 -32 -94c13 -27 10 -70 30 -93c29 -33 103 -26 102 -78l-1 -181c-1 -53 -75 -52 -104 -89c-32 -41 -5 -132 -70 -132h-161c-65 0 -37 91 -68 132c-28 37 -103 36 -102 89zM412 317h-161
c-36 0 -14 -49 -28 -73c-11 -19 -42 -25 -42 -49l-1 -150c0 -24 29 -30 40 -49c4 -8 5 -18 5 -29v-10c0 -18 2 -35 22 -35h161c36 0 14 50 28 74c11 19 42 25 42 49l1 150c0 24 -29 30 -40 49c-4 8 -5 18 -5 29v10c0 18 -2 34 -22 34z" />
    <glyph glyph-name="Scedilla" unicode="&#x15e;" horiz-adv-x="728" 
d="M58 151h103c0 -29 40 -27 55 -47c17 -22 1 -71 36 -71h219c35 0 21 49 38 71c16 20 56 18 56 47l2 145c0 29 -41 27 -56 47c-17 22 -1 71 -36 71h-219c-57 0 -43 81 -77 114c-34 34 -118 18 -117 76l2 145c1 58 83 42 118 76c34 33 23 115 80 115h218
c57 0 43 -82 77 -115c34 -34 118 -18 117 -76h-103c0 29 -40 27 -55 47c-17 22 -2 71 -37 71h-218c-35 0 -21 -49 -38 -71c-16 -20 -56 -18 -56 -47l-2 -145c0 -29 40 -27 55 -47c17 -22 2 -71 37 -71h219c57 0 43 -81 77 -114c34 -34 118 -18 117 -76l-2 -145
c-1 -58 -83 -42 -118 -76c-34 -33 -23 -115 -80 -115h-95l-47 -129h84c53 0 26 -75 49 -109c20 -30 75 -32 75 -72l-1 -151c0 -40 -56 -42 -77 -72c-24 -34 1 -109 -52 -109h-103c-8 0 -14 2 -19 5l33 53h90c16 0 20 10 20 22c0 11 -4 26 -4 38c0 29 29 38 29 63l2 151
c0 24 -28 34 -28 62c0 13 4 28 4 40s-4 21 -19 21h-181l68 187h-46c-57 0 -44 82 -78 115c-34 34 -117 18 -116 76z" />
    <glyph glyph-name="Ohungarumlaut" unicode="&#x150;" horiz-adv-x="980" 
d="M326 967l111 180h124l-143 -180h-92zM645 1147h125l-143 -180h-93zM674 867h-351c-76 0 -32 -105 -61 -155c-24 -41 -90 -53 -91 -104l-3 -316c-1 -51 66 -63 89 -104c28 -50 -18 -155 58 -155h351c76 0 32 105 61 155c24 41 90 53 91 104l3 316c1 51 -66 63 -89 104
c-28 50 18 155 -58 155zM675 940c97 0 53 -138 99 -199c41 -55 151 -54 150 -133l-3 -316c-1 -79 -111 -78 -153 -133c-47 -61 -6 -199 -103 -199h-351c-97 0 -53 138 -99 199c-41 55 -151 54 -150 133l3 316c1 79 111 78 153 133c47 61 6 199 103 199h351z" />
    <glyph glyph-name="k" unicode="k" horiz-adv-x="609" 
d="M100 980h103l-7 -714l298 283h106l-238 -226l232 -323h-134l-178 247l-87 -82c-1 -55 -1 -110 -2 -165h-103z" />
    <glyph glyph-name="thorn" unicode="&#xfe;" horiz-adv-x="714" 
d="M78 -660l15 1560h103l-5 -475c13 9 26 18 33 30c26 43 -11 134 54 134h199c65 0 40 -94 74 -134c31 -38 112 -32 111 -89l-1 -183c-1 -57 -82 -51 -114 -89c-34 -40 -11 -134 -76 -134h-199c-65 0 -27 91 -52 134c-7 12 -20 21 -32 30l-7 -784h-103zM476 516h-199
c-44 0 -18 -61 -35 -90c-13 -23 -50 -30 -51 -59l-2 -185c0 -29 37 -36 50 -59c6 -10 6 -24 6 -38v-8c0 -23 1 -44 27 -44h199c44 0 18 61 35 90c14 23 52 31 52 60l1 183c0 29 -37 37 -50 60c-6 10 -6 24 -6 38v8c0 23 -1 44 -27 44z" />
    <glyph glyph-name="semicolon" unicode=";" horiz-adv-x="336" 
d="M115 110h115l-138 -275h-85zM177 549c24 0 18 -35 32 -49s49 -9 49 -33c0 -25 -34 -18 -49 -32c-14 -14 -10 -50 -34 -50s-18 36 -32 50s-49 8 -49 32c0 25 35 19 50 33c14 14 9 49 33 49z" />
    <glyph glyph-name="N" unicode="N" horiz-adv-x="875" 
d="M98 0l9 900h7l563 -670l6 670h103l-9 -900h-7l-562 670l-7 -670h-103z" />
    <glyph glyph-name="Aacute" unicode="&#xc1;" horiz-adv-x="777" 
d="M14 0l380 900h7l362 -900h-111l-59 146h-437l-61 -146h-81zM448 1147h129l-155 -180h-95zM564 219l-184 457l-193 -457h377z" />
    <glyph glyph-name="Udieresis" unicode="&#xdc;" horiz-adv-x="832" 
d="M746 900l-7 -722c-1 -61 -87 -49 -123 -87c-37 -39 -19 -131 -83 -131h-236c-64 0 -44 92 -80 131c-35 38 -122 26 -121 87l7 722h103l-7 -722c0 -32 44 -34 60 -58c19 -27 -3 -87 39 -87h236c42 0 22 60 41 87c17 24 61 26 61 58l7 722h103zM299 1102
c25 0 18 -35 33 -50s50 -9 50 -34s-36 -19 -51 -34s-9 -50 -34 -50s-18 35 -33 50s-50 9 -50 34s36 19 51 34s9 50 34 50zM549 1102c25 0 19 -35 34 -50s50 -9 50 -34s-36 -19 -51 -34s-9 -50 -34 -50s-18 35 -33 50s-51 9 -51 34s36 19 51 34s9 50 34 50z" />
    <glyph glyph-name="sterling" unicode="&#xa3;" horiz-adv-x="672" 
d="M514 699c0 32 -36 46 -36 83c0 19 7 41 7 58c0 16 -6 27 -26 27h-133c-21 0 -26 -12 -26 -28s5 -37 5 -55c0 -38 -37 -52 -37 -85l-3 -339h265l-1 -72h-265l-1 -137c-1 -58 -82 -26 -120 -50c-10 -7 -18 -17 -25 -28h492v-73h-547l1 73c24 0 22 34 38 47
c18 14 58 3 58 31l1 137h-95l1 72h95l3 339c1 52 71 57 97 96c31 46 -5 145 65 145h133c70 0 32 -99 62 -145c25 -39 96 -44 95 -96h-103z" />
    <glyph glyph-name="d" unicode="d" horiz-adv-x="721" 
d="M631 0h-103l1 124c-13 -9 -25 -18 -32 -30c-26 -43 10 -134 -55 -134h-199c-65 0 -39 94 -73 134c-31 38 -113 32 -112 89l2 183c1 57 81 51 113 89c34 40 12 134 77 134h199c65 0 26 -91 51 -134c7 -12 20 -21 32 -30l5 555h103zM448 516h-199c-44 0 -18 -61 -35 -90
c-14 -23 -51 -31 -51 -60l-2 -183c0 -29 37 -37 50 -60c6 -10 6 -24 6 -38v-8c0 -23 1 -44 27 -44h199c44 0 18 61 35 90c13 23 50 30 51 59c1 61 1 123 2 184c0 29 -37 37 -50 60c-6 10 -6 24 -6 38v8c0 23 -1 44 -27 44z" />
    <glyph glyph-name="quotedblbase" unicode="&#x201e;" horiz-adv-x="644" 
d="M103 -180l104 292h107l-132 -292h-79zM448 112h107l-132 -292h-79z" />
    <glyph glyph-name="Z" unicode="Z" horiz-adv-x="714" 
d="M42 827l1 73h647v-7l-494 -820h486l-1 -73h-647v7l493 820h-485z" />
    <glyph glyph-name="Zcaron" unicode="&#x17d;" horiz-adv-x="714" 
d="M42 827l1 73h647v-7l-494 -820h486l-1 -73h-647v7l493 820h-485zM449 1147h93l-114 -180h-126l-112 180h94l81 -102z" />
    <glyph glyph-name="Edieresis" unicode="&#xcb;" horiz-adv-x="651" 
d="M98 0l9 900h504v-73h-402l-4 -467h350l-1 -72h-350l-2 -215h401l-1 -73h-504zM234 1102c25 0 18 -35 33 -50s50 -9 50 -34s-36 -19 -51 -34s-9 -50 -34 -50s-18 35 -33 50s-51 9 -51 34s36 19 51 34s10 50 35 50zM484 1102c25 0 18 -35 33 -50s51 -9 51 -34
s-36 -19 -51 -34s-9 -50 -34 -50s-19 35 -34 50s-50 9 -50 34s36 19 51 34s9 50 34 50z" />
    <glyph glyph-name="udieresis" unicode="&#xfc;" 
d="M586 549l-6 -549h-103l1 80c-9 -5 -16 -11 -22 -19c-22 -32 1 -101 -48 -101h-161c-50 0 -37 71 -67 101s-104 17 -103 68l5 420h103l-5 -420c0 -22 30 -22 41 -38c13 -18 -1 -58 27 -58h161c28 0 15 40 28 58c11 16 42 16 42 38c1 140 3 280 4 420h103zM212 792
c25 0 18 -35 33 -50s50 -9 50 -34s-36 -19 -51 -34s-9 -50 -34 -50s-18 35 -33 50s-51 9 -51 34s36 19 51 34s10 50 35 50zM462 792c25 0 18 -35 33 -50s51 -9 51 -34s-36 -19 -51 -34s-10 -50 -35 -50s-18 35 -33 50s-50 9 -50 34s36 19 51 34s9 50 34 50z" />
    <glyph glyph-name="eogonek" unicode="&#x119;" horiz-adv-x="693" 
d="M380 -564c0 29 29 38 29 63h83c0 -40 -56 -42 -77 -72c-24 -34 1 -109 -52 -109h-104c-53 0 -26 75 -49 109c-20 30 -75 32 -75 72l1 151c1 74 60 130 90 196l52 114h-31c-65 0 -41 94 -75 134c-32 38 -115 31 -114 89l2 183c1 58 82 51 115 89c35 40 13 134 78 134h207
c65 0 41 -94 75 -134c32 -38 114 -31 113 -89c0 -43 -1 -85 -1 -128h-486v-55c0 -30 38 -36 52 -60c17 -29 -10 -90 34 -90h65l11 25l25 -25h106c25 0 21 36 36 50c16 15 53 7 53 33h103c-1 -56 -80 -34 -115 -62c-32 -26 -30 -94 -78 -94h-92l-80 -173
c-21 -47 -61 -85 -62 -137l-2 -151c0 -24 28 -34 28 -62c0 -13 -4 -28 -4 -40s4 -21 19 -21h104c16 0 19 10 19 22c0 11 -3 26 -3 38zM545 366c0 30 -38 36 -52 60c-17 29 10 90 -34 90h-207c-44 0 -19 -61 -36 -90c-14 -24 -53 -30 -53 -60l-1 -55h383v55z" />
    <glyph glyph-name="ij" unicode="&#x133;" horiz-adv-x="644" 
d="M132 549h103l-6 -549h-103zM566 549l-10 -982c-1 -52 -68 -65 -92 -107c-30 -52 16 -160 -62 -160h-113c-20 0 -32 7 -39 19l92 54h61c23 0 29 11 29 28c0 21 -10 50 -10 74c0 37 31 58 31 92l10 982h103zM523 796c25 0 18 -36 33 -51s50 -8 50 -33s-36 -19 -51 -34
s-9 -51 -34 -51s-18 36 -33 51s-50 8 -50 33s36 19 51 34s9 51 34 51zM180 796c25 0 18 -36 33 -51s50 -8 50 -33s-36 -19 -51 -34s-9 -51 -34 -51s-18 36 -33 51s-50 8 -50 33s36 19 51 34s9 51 34 51z" />
    <glyph glyph-name="space" unicode=" " horiz-adv-x="420" 
 />
    </font>
</defs>
</svg>
